<svg width="44" height="44" viewBox="0 0 44 44" fill="none" xmlns="http://www.w3.org/2000/svg">
<rect x="2.42773" y="13.1484" width="38.8235" height="27.8438" fill="#3C68C8"/>
<path d="M37.9357 7.47656H6.14893L21.921 0L37.9357 7.47656Z" fill="#234CA7"/>
<rect x="9.38428" y="7.47656" width="24.9926" height="2.92188" fill="#3C68C8"/>
<rect y="10.3984" width="44" height="2.75" rx="1.375" fill="#234CA7"/>
<rect x="19.0867" y="27.7578" width="5.74265" height="13.4922" fill="#A8CEF8"/>
<rect x="5.0144" y="27.7578" width="5.74265" height="13.4922" fill="#A8CEF8"/>
<rect x="33" y="27.7578" width="5.74265" height="13.4922" fill="#A8CEF8"/>
<rect x="5.0144" y="18.9922" width="3.31618" height="4.72656" fill="#A8CEF8"/>
<rect x="17.4712" y="18.9922" width="3.31618" height="4.72656" fill="#A8CEF8"/>
<rect x="23.2117" y="18.9922" width="3.31618" height="4.72656" fill="#A8CEF8"/>
<rect x="35.4277" y="18.9922" width="3.31618" height="4.72656" fill="#A8CEF8"/>
<rect y="40.9922" width="44" height="3.00781" rx="1.50391" fill="#02236B"/>
<rect x="9.37939" y="13.1484" width="7.03677" height="3.09375" fill="#5E8DF1"/>
<rect x="9.37939" y="37.8984" width="7.03677" height="3.09375" fill="#5E8DF1"/>
<rect x="10.7544" y="16.2422" width="4.28677" height="21.6562" fill="#234CA7"/>
<rect x="27.3403" y="13.1484" width="7.03677" height="3.09375" fill="#5E8DF1"/>
<rect x="27.3403" y="37.8984" width="7.03677" height="3.09375" fill="#5E8DF1"/>
<rect x="28.7153" y="16.2422" width="4.28677" height="21.6562" fill="#234CA7"/>
</svg>
