<svg width="44" height="44" viewBox="0 0 44 44" fill="none" xmlns="http://www.w3.org/2000/svg">
<rect x="21.5227" width="1.38856" height="10.2265" rx="0.694279" fill="#666666"/>
<path d="M22.9114 0.859375H26.0147C27.2724 0.859375 28.292 1.87897 28.292 3.13671C28.292 4.39445 27.2724 5.41405 26.0147 5.41405H22.9114V0.859375Z" fill="#EF3C3C"/>
<path d="M22.9114 0.859375H27.003C27.7149 0.859375 28.292 1.43651 28.292 2.14844C28.292 2.86036 27.7149 3.4375 27.003 3.4375H22.9114V0.859375Z" fill="#F94A46"/>
<rect x="4.80811" y="20.8457" width="34.586" height="16.8122" fill="#234CA7"/>
<path d="M4.19385 14.7934V17.6755H39.9054V14.7934L22.3054 7.01172L4.19385 14.7934Z" fill="#A8CEF8"/>
<path d="M5.83081 15.8516V17.5808H39.9052V14.7948L24.0608 7.77734L5.83081 15.8516Z" fill="#5E8DF1"/>
<rect x="2.45386" y="17.6777" width="39.293" height="3.1703" rx="1.58515" fill="#A8CEF8"/>
<path d="M4.19409 19.4062H41.7475C41.7475 20.2021 41.1023 20.8473 40.3065 20.8473H4.19409V19.4062Z" fill="#5E8DF1"/>
<rect x="2.45386" y="37.6582" width="39.293" height="3.1703" rx="1.58515" fill="#A8CEF8" fill-opacity="0.65"/>
<rect x="4.19409" y="39.3867" width="37.5534" height="1.44105" fill="#5E8DF1"/>
<rect y="40.832" width="43.9999" height="3.1703" rx="1.58515" fill="#A8CEF8"/>
<path d="M1.53394 42.5605H43.999C43.999 43.3564 43.3538 44.0016 42.5579 44.0016H1.53394V42.5605Z" fill="#5E8DF1"/>
<rect x="4.09131" y="20.8477" width="5.73022" height="3.1703" fill="#A8CEF8"/>
<rect x="4.09131" y="34.7773" width="5.73022" height="3.1703" fill="#A8CEF8"/>
<rect x="4.80884" y="24.0195" width="4.19534" height="10.7598" fill="#5E8DF1"/>
<rect x="14.2227" y="20.8477" width="5.73022" height="3.1703" fill="#A8CEF8"/>
<rect x="14.2227" y="34.7773" width="5.73022" height="3.1703" fill="#A8CEF8"/>
<rect x="14.9402" y="24.0176" width="4.19534" height="10.7598" fill="#5E8DF1"/>
<rect x="24.3511" y="20.8477" width="5.73022" height="3.1703" fill="#A8CEF8"/>
<rect x="24.3511" y="34.7773" width="5.73022" height="3.1703" fill="#A8CEF8"/>
<rect x="25.0686" y="24.0195" width="4.19534" height="10.7598" fill="#5E8DF1"/>
<rect x="34.4871" y="20.8477" width="5.73022" height="3.1703" fill="#A8CEF8"/>
<rect x="34.4871" y="34.7773" width="5.73022" height="3.1703" fill="#A8CEF8"/>
<rect x="35.2046" y="24.0195" width="4.19534" height="10.7598" fill="#5E8DF1"/>
</svg>
