<?xml version="1.0" encoding="utf-8"?>
<!-- Generator: Adobe Illustrator 24.1.0, SVG Export Plug-In . SVG Version: 6.00 Build 0)  -->
<svg version="1.1" id="Layer_1" xmlns="http://www.w3.org/2000/svg" xmlns:xlink="http://www.w3.org/1999/xlink" x="0px" y="0px"
	 viewBox="0 0 197 60" style="enable-background:new 0 0 197 60;" xml:space="preserve">
<style type="text/css">
	.st0{opacity:0;}
	.st1{fill:#241F20;}
	.st2{fill-rule:evenodd;clip-rule:evenodd;fill:url(#SVGID_1_);}
	.st3{fill-rule:evenodd;clip-rule:evenodd;fill:url(#SVGID_2_);}
	.st4{fill-rule:evenodd;clip-rule:evenodd;fill:url(#SVGID_3_);}
</style>
<g id="Layer_1-2">
	<g class="st0">
		<path d="M193,2.1V58H4.1V2.1H193 M193.9,1.2H3.2v57.7h190.7V1.2z"/>
	</g>
	<g>
		<path class="st1" d="M37.7,20.2c-0.1,0-0.3,0-0.4,0c-9.4,0-9.4,6.6-9.4,10.8v3.3c0,2.9,2.3,5.2,5.2,5.2l0,0v-9.9
			c0-3.1,1.2-4.4,4.1-4.4h2.2v-5H37.7z"/>
		<path class="st1" d="M39.8,29.9c0-5.8,4.4-10.1,10.3-10.1s10.3,4.3,10.3,10.1S55.9,40,50,40C44.2,40,39.8,35.7,39.8,29.9z
			 M55.2,29.9c0-3.1-2.1-5.2-5.1-5.2S45,26.8,45,29.9s2.1,5.2,5.1,5.2S55.2,33,55.2,29.9z"/>
		<path class="st1" d="M74.2,29.9c0-5.8,4.4-10.1,10.3-10.1s10.3,4.3,10.3,10.1S90.5,40,84.6,40C78.7,40,74.2,35.7,74.2,29.9z
			 M89.7,29.9c0-3.1-2.1-5.2-5.1-5.2s-5.1,2.1-5.1,5.2s2.1,5.2,5.1,5.2S89.7,33,89.7,29.9z"/>
		<path class="st1" d="M74.1,20.5h-6.4v-3.8h-5.2v17.7c0,2.9,2.3,5.2,5.2,5.2l0,0V24.8h6.4V20.5z"/>
		<path class="st1" d="M13.6,19.9H8.4v21.3c0,2.9,2.3,5.2,5.2,5.2l0,0V19.9z"/>
		<g>
			
				<linearGradient id="SVGID_1_" gradientUnits="userSpaceOnUse" x1="10.05" y1="-748.4323" x2="26.6311" y2="-748.4323" gradientTransform="matrix(1 0 0 -1 0 -722.0654)">
				<stop  offset="0" style="stop-color:#40A3B6"/>
				<stop  offset="1" style="stop-color:#4D64AE"/>
			</linearGradient>
			<path class="st2" d="M17,24.3c3.8,0,7.6,2.7,7.6,6.8c0,0.6-0.1,1.2-0.3,1.8c1.6-1.4,2.3-3.3,2.3-5.6c0-1.1-0.2-2.1-0.7-3.1
				c-1-2-2.9-3.3-5.1-3.9c-2.9-0.7-7.6-0.4-10.7-0.4C10.1,20.6,10.2,24.3,17,24.3L17,24.3z"/>
			
				<linearGradient id="SVGID_2_" gradientUnits="userSpaceOnUse" x1="15.791" y1="-751.7642" x2="24.5526" y2="-751.7642" gradientTransform="matrix(1 0 0 -1 0 -722.0654)">
				<stop  offset="0" style="stop-color:#68BD5B"/>
				<stop  offset="1" style="stop-color:#269262"/>
			</linearGradient>
			<path class="st3" d="M20.2,29.9c-4.4,3.2-4.4-0.5-4.4,5.3c0.1,0,0.3,0,0.4,0c0.2,0,0.4,0,0.7,0c3,0,5.3-0.7,7.1-2.2
				c0.1-0.1,0.2-0.2,0.3-0.2c0.2-0.6,0.3-1.2,0.3-1.8c0-3.7-3.4-6.8-7.6-6.8h-0.1h-0.4c1.7,0,2.9,0.3,3.6,0.8
				c0.8,0.5,1.1,1.3,1.1,2.4C21.4,28.5,21,29.4,20.2,29.9L20.2,29.9z"/>
			
				<linearGradient id="SVGID_3_" gradientUnits="userSpaceOnUse" x1="10.05" y1="-755.9642" x2="21.4133" y2="-755.9642" gradientTransform="matrix(1 0 0 -1 0 -722.0654)">
				<stop  offset="0" style="stop-color:#D0CA29"/>
				<stop  offset="1" style="stop-color:#D5AD29"/>
			</linearGradient>
			<path class="st4" d="M20.2,29.9c-2.4,1.8-10.1-0.2-10.1,7.9c0,1.2,0.3,2.3,0.8,3.3c0.1-0.6,0.2-1.2,0.5-1.7
				c0.8-1.9,2.4-3.5,4.4-4.2l0,0l0,0c3.2-0.8,5.6-3.7,5.6-7c0-0.5-0.1-1-0.2-1.5c0,0.2,0.1,0.5,0.1,0.8C21.4,28.5,21,29.4,20.2,29.9
				L20.2,29.9z"/>
		</g>
		<path class="st1" d="M114.5,20.6l-7.6,19.2h-4.8l-7.8-19.2h5.5l4.7,12.9l4.6-12.9C109.1,20.6,114.5,20.6,114.5,20.6z"/>
		<path class="st1" d="M133.6,31.6h-14.5c0.5,2.6,2.2,4.1,4.7,4.1c1.8,0,3.3-0.9,4.1-2.2h5.5c-1.4,4.2-5.1,6.8-9.5,6.8
			c-5.7,0-9.9-4.4-9.9-10.1c0-5.8,4.3-10.1,9.9-10.1c5.9,0,9.9,4.5,9.9,10.1C133.8,30.6,133.6,31.1,133.6,31.6z M119.2,28.1h9.3
			c-0.7-2.3-2.4-3.6-4.7-3.6C121.5,24.5,119.8,25.8,119.2,28.1z"/>
		<path class="st1" d="M149.2,20.6h5.2v19.2l0,0c-2.9,0-5.2-2.3-5.2-5.2V20.6z M149.2,13.2h5.2V18h-5.2V13.2z"/>
		<path class="st1" d="M183.1,20.9l-4.8,11.8l-5.1-11.8h-8.7v-1.7c0-1.1,0.9-2.1,2.1-2.1h2.9V13h-3.9c-4,0-6.1,2.4-6.1,6v1.7h-3.4
			V25h3.3v9.5c0,2.9,2.3,5.2,5.2,5.2V25.1h4.8l6.2,13.5l-0.1,0.2c-1.2,2.9-1.8,3.6-4.3,3.6h-1.8v4.7h2.1c4.3,0,6.3-2,8.6-7.2
			l8.4-18.9h-5.4V20.9z"/>
		<path class="st1" d="M145.8,20.2c-0.1,0-0.3,0-0.4,0c-9.4,0-9.4,6.6-9.4,10.8v3.3c0,2.9,2.3,5.2,5.2,5.2l0,0v-9.9
			c0-3.1,1.2-4.4,4.1-4.4h2.2v-5H145.8z"/>
	</g>
</g>
</svg>
