<svg width="90" height="91" viewBox="0 0 90 91" fill="none" xmlns="http://www.w3.org/2000/svg">
<g filter="url(#filter0_d_1122_31122)">
<path d="M3.5 25.5L3.5 84.5L6.95833 81L86.5 0.5H31C28.6 0.5 11.6667 17.1667 3.5 25.5Z" fill="#04B33F"/>
</g>
<g clip-path="url(#clip0_1122_31122)">
<path d="M24.6527 21.039C24.6138 21.1495 24.6267 21.2761 24.6625 21.4237C24.6983 21.5717 24.7626 21.76 24.8451 22.0021L24.8469 22.0073L26.4412 26.6832C26.4928 26.8345 26.511 26.8911 26.5131 26.946C26.5151 26.9977 26.5071 27.0493 26.4894 27.098C26.4706 27.1497 26.436 27.198 26.3407 27.3263L23.3945 31.2956L23.3912 31.3C23.2388 31.5053 23.1203 31.665 23.041 31.795C22.9619 31.9246 22.911 32.0412 22.9144 32.1583C22.9196 32.3391 23.0061 32.508 23.1499 32.6178C23.243 32.6889 23.3674 32.7157 23.5187 32.7272C23.6706 32.7388 23.8695 32.7358 24.1251 32.732L24.1306 32.7319L29.0689 32.6583C29.229 32.6559 29.2885 32.656 29.3415 32.671C29.3914 32.6851 29.438 32.7088 29.4788 32.7407C29.5222 32.7746 29.5575 32.8226 29.6502 32.9531L32.5086 36.9802L32.5117 36.9846C32.6598 37.1933 32.775 37.3556 32.8741 37.4713C32.9729 37.5867 33.0681 37.6713 33.1804 37.7043C33.3541 37.7554 33.5415 37.7254 33.6904 37.6226C33.7868 37.5561 33.8508 37.446 33.9086 37.3056C33.9666 37.1646 34.0253 36.9745 34.1008 36.73L34.1024 36.7248L35.5602 32.0043C35.6074 31.8514 35.6259 31.7948 35.6566 31.749C35.6854 31.706 35.7223 31.6689 35.7653 31.64C35.8109 31.6092 35.8674 31.5905 36.0202 31.5427L40.7357 30.0686L40.7409 30.067C40.985 29.9907 41.175 29.9313 41.3157 29.8728C41.456 29.8145 41.5658 29.7502 41.632 29.6535C41.7343 29.5042 41.7636 29.3167 41.712 29.1432C41.6785 29.031 41.5936 28.9361 41.4779 28.8377C41.3618 28.739 41.1991 28.6244 40.99 28.477L40.9855 28.4739L36.9486 25.6294C36.8177 25.5372 36.7696 25.5021 36.7356 25.4588C36.7035 25.4181 36.6797 25.3715 36.6654 25.3217C36.6503 25.2688 36.65 25.2092 36.6518 25.0492L36.7083 20.1106L36.7084 20.1052C36.7113 19.8495 36.7136 19.6506 36.7015 19.4988C36.6894 19.3475 36.6622 19.2232 36.5908 19.1304C36.4805 18.987 36.3113 18.901 36.1305 18.8964C36.0134 18.8935 35.8969 18.9448 35.7676 19.0243C35.6379 19.104 35.4786 19.2231 35.2738 19.3762L35.2695 19.3795L31.3104 22.3394C31.1824 22.4352 31.1342 22.47 31.0825 22.4889C31.034 22.5068 30.9824 22.515 30.9307 22.5132C30.8757 22.5113 30.8191 22.4932 30.6676 22.4421L25.9862 20.864L25.981 20.8622C25.7387 20.7805 25.5501 20.717 25.4019 20.6816C25.2543 20.6464 25.1276 20.6339 25.0173 20.6732C24.8468 20.7339 24.7128 20.8683 24.6527 21.039Z" fill="white" stroke="#E2E2E2" stroke-width="0.2" stroke-linecap="round" stroke-linejoin="round"/>
</g>
<defs>
<filter id="filter0_d_1122_31122" x="0.5" y="0.5" width="89" height="90" filterUnits="userSpaceOnUse" color-interpolation-filters="sRGB">
<feFlood flood-opacity="0" result="BackgroundImageFix"/>
<feColorMatrix in="SourceAlpha" type="matrix" values="0 0 0 0 0 0 0 0 0 0 0 0 0 0 0 0 0 0 127 0" result="hardAlpha"/>
<feOffset dy="3"/>
<feGaussianBlur stdDeviation="1.5"/>
<feComposite in2="hardAlpha" operator="out"/>
<feColorMatrix type="matrix" values="0 0 0 0 0 0 0 0 0 0 0 0 0 0 0 0 0 0 0.25 0"/>
<feBlend mode="normal" in2="BackgroundImageFix" result="effect1_dropShadow_1122_31122"/>
<feBlend mode="normal" in="SourceGraphic" in2="effect1_dropShadow_1122_31122" result="shape"/>
</filter>
<clipPath id="clip0_1122_31122">
<rect width="24" height="24" fill="white" transform="translate(14.5312 27.5293) rotate(-45.0991)"/>
</clipPath>
</defs>
</svg>
