<svg width="90" height="91" viewBox="0 0 90 91" fill="none" xmlns="http://www.w3.org/2000/svg">
<g filter="url(#filter0_d_4_41648)">
<path d="M3.5 25.5L3.5 84.5L6.95833 81L86.5 0.5H31C28.6 0.5 11.6667 17.1667 3.5 25.5Z" fill="#DEE839"/>
</g>
<g clip-path="url(#clip0_4_41648)">
<path d="M25.6527 21.039C25.6138 21.1495 25.6267 21.2761 25.6625 21.4237C25.6983 21.5717 25.7626 21.76 25.8451 22.0021L25.8469 22.0073L27.4412 26.6832C27.4928 26.8345 27.511 26.8911 27.5131 26.946C27.5151 26.9977 27.5071 27.0493 27.4894 27.098C27.4706 27.1497 27.436 27.198 27.3407 27.3263L24.3945 31.2956L24.3912 31.3C24.2388 31.5053 24.1203 31.665 24.041 31.795C23.9619 31.9246 23.911 32.0412 23.9144 32.1583C23.9196 32.3391 24.0061 32.508 24.1499 32.6178C24.243 32.6889 24.3674 32.7157 24.5187 32.7272C24.6706 32.7388 24.8695 32.7358 25.1251 32.732L25.1306 32.7319L30.0689 32.6583C30.229 32.6559 30.2885 32.656 30.3415 32.671C30.3914 32.6851 30.438 32.7088 30.4788 32.7407C30.5222 32.7746 30.5575 32.8226 30.6502 32.9531L33.5086 36.9802L33.5117 36.9846C33.6598 37.1933 33.775 37.3556 33.8741 37.4713C33.9729 37.5867 34.0681 37.6713 34.1804 37.7043C34.3541 37.7554 34.5415 37.7254 34.6904 37.6226C34.7868 37.5561 34.8508 37.446 34.9086 37.3056C34.9666 37.1646 35.0253 36.9745 35.1008 36.73L35.1024 36.7248L36.5602 32.0043C36.6074 31.8514 36.6259 31.7948 36.6566 31.749C36.6854 31.706 36.7223 31.6689 36.7653 31.64C36.8109 31.6092 36.8674 31.5905 37.0202 31.5427L41.7357 30.0686L41.7409 30.067C41.985 29.9907 42.175 29.9313 42.3157 29.8728C42.456 29.8145 42.5658 29.7502 42.632 29.6535C42.7343 29.5042 42.7636 29.3167 42.712 29.1432C42.6785 29.031 42.5936 28.9361 42.4779 28.8377C42.3618 28.739 42.1991 28.6244 41.99 28.477L41.9855 28.4739L37.9486 25.6294C37.8177 25.5372 37.7696 25.5021 37.7356 25.4588C37.7035 25.4181 37.6797 25.3715 37.6654 25.3217C37.6503 25.2688 37.65 25.2092 37.6518 25.0492L37.7083 20.1106L37.7084 20.1052C37.7113 19.8495 37.7136 19.6506 37.7015 19.4988C37.6894 19.3475 37.6622 19.2232 37.5908 19.1304C37.4805 18.987 37.3113 18.901 37.1305 18.8964C37.0134 18.8935 36.8969 18.9448 36.7676 19.0243C36.6379 19.104 36.4786 19.2231 36.2738 19.3762L36.2695 19.3795L32.3104 22.3394C32.1824 22.4352 32.1342 22.47 32.0825 22.4889C32.034 22.5068 31.9824 22.515 31.9307 22.5132C31.8757 22.5113 31.8191 22.4932 31.6676 22.4421L26.9862 20.864L26.981 20.8622C26.7387 20.7805 26.5501 20.717 26.4019 20.6816C26.2543 20.6464 26.1276 20.6339 26.0173 20.6732C25.8468 20.7339 25.7128 20.8683 25.6527 21.039Z" fill="white" stroke="#E2E2E2" stroke-width="0.2" stroke-linecap="round" stroke-linejoin="round"/>
</g>
<defs>
<filter id="filter0_d_4_41648" x="0.5" y="0.5" width="89" height="90" filterUnits="userSpaceOnUse" color-interpolation-filters="sRGB">
<feFlood flood-opacity="0" result="BackgroundImageFix"/>
<feColorMatrix in="SourceAlpha" type="matrix" values="0 0 0 0 0 0 0 0 0 0 0 0 0 0 0 0 0 0 127 0" result="hardAlpha"/>
<feOffset dy="3"/>
<feGaussianBlur stdDeviation="1.5"/>
<feComposite in2="hardAlpha" operator="out"/>
<feColorMatrix type="matrix" values="0 0 0 0 0 0 0 0 0 0 0 0 0 0 0 0 0 0 0.25 0"/>
<feBlend mode="normal" in2="BackgroundImageFix" result="effect1_dropShadow_4_41648"/>
<feBlend mode="normal" in="SourceGraphic" in2="effect1_dropShadow_4_41648" result="shape"/>
</filter>
<clipPath id="clip0_4_41648">
<rect width="24" height="24" fill="white" transform="translate(15.5312 27.5293) rotate(-45.0991)"/>
</clipPath>
</defs>
</svg>
