<svg width="191" height="59" viewBox="0 0 191 59" fill="none" xmlns="http://www.w3.org/2000/svg">
<g clip-path="url(#clip0_684_34019)">
<path d="M34.4992 19.5781C34.3992 19.5781 34.1992 19.5781 34.0992 19.5781C24.6992 19.5781 24.6992 26.1781 24.6992 30.3781V33.6781C24.6992 36.5781 26.9992 38.8781 29.8992 38.8781V28.9781C29.8992 25.8781 31.0992 24.5781 33.9992 24.5781H36.1992V19.5781H34.4992Z" fill="white"/>
<path d="M36.5977 29.2797C36.5977 23.4797 40.9977 19.1797 46.8977 19.1797C52.7977 19.1797 57.1977 23.4797 57.1977 29.2797C57.1977 35.0797 52.7977 39.3797 46.8977 39.3797C40.9977 39.3797 36.5977 35.0797 36.5977 29.2797ZM51.9977 29.2797C51.9977 26.1797 49.8977 24.0797 46.8977 24.0797C43.8977 24.0797 41.7977 26.1797 41.7977 29.2797C41.7977 32.3797 43.8977 34.4797 46.8977 34.4797C49.8977 34.4797 51.9977 32.3797 51.9977 29.2797Z" fill="white"/>
<path d="M71.0977 29.2797C71.0977 23.4797 75.4977 19.1797 81.3977 19.1797C87.2977 19.1797 91.6977 23.4797 91.6977 29.2797C91.6977 35.0797 87.2977 39.3797 81.3977 39.3797C75.4977 39.3797 71.0977 35.0797 71.0977 29.2797ZM86.4977 29.2797C86.4977 26.1797 84.3977 24.0797 81.3977 24.0797C78.3977 24.0797 76.2977 26.1797 76.2977 29.2797C76.2977 32.3797 78.3977 34.4797 81.3977 34.4797C84.3977 34.4797 86.4977 32.3797 86.4977 29.2797Z" fill="white"/>
<path d="M70.9008 19.8781H64.5008V16.0781H59.3008V33.7781C59.3008 36.6781 61.6008 38.9781 64.5008 38.9781V24.1781H70.9008V19.8781Z" fill="white"/>
<path d="M10.3992 19.2773H5.19922V40.5773C5.19922 43.4773 7.49922 45.7773 10.3992 45.7773V19.2773Z" fill="white"/>
<path fill-rule="evenodd" clip-rule="evenodd" d="M13.7984 23.6787C17.5984 23.6787 20 25.4 20 29.5C20 30.1 20.7 31.9 20.5 32.5C22 32 23.3984 28.9787 23.3984 26.6787C23.3984 25.5787 23.1984 24.5787 22.6984 23.5787C21.6984 21.5787 19.7984 20.2787 17.5984 19.6787C14.6984 18.9787 9.99844 19.2787 6.89844 19.2787C6.89844 19.9787 6.99844 23.6787 13.7984 23.6787Z" fill="white"/>
<path fill-rule="evenodd" clip-rule="evenodd" d="M16.9967 29.2781C11.9964 31.5 12.5967 28.7781 12.5967 34.5781C12.6967 34.5781 12.8967 34.5781 12.9967 34.5781C13.1967 34.5781 13.3967 34.5781 13.6967 34.5781C16.6967 34.5781 18.9967 33.8781 20.7967 32.3781C21 32 20.9765 32.1781 21.0967 32.1781C21.2967 31.5781 21.3967 30.9781 21.3967 30.3781C21.3967 26.6781 17.9967 23.5781 13.7967 23.5781H13.6967H13.2967C14.9967 23.5781 16.1967 23.8781 16.8967 24.3781C17.6967 24.8781 17.9967 25.6781 17.9967 26.7781C18.1967 27.8781 17.7967 28.7781 16.9967 29.2781Z" fill="white"/>
<path fill-rule="evenodd" clip-rule="evenodd" d="M16.9984 29.2781C14.5984 31.0781 6.89844 29.0781 6.89844 37.1781C6.89844 38.3781 7.19844 39.4781 7.69844 40.4781C7.79844 39.8781 7.89844 39.2781 8.19844 38.7781C8.99844 36.8781 10.9016 34.9219 13 34.5C18.1984 33.4549 18.1984 30.8781 18.1984 27.5781C18.1984 27.0781 18.0984 26.5781 17.9984 26.0781C17.9984 26.2781 18.0984 26.5781 18.0984 26.8781C18.1984 27.8781 17.7984 28.7781 16.9984 29.2781Z" fill="white"/>
<path d="M111.298 19.9805L103.698 39.1805H98.8977L91.0977 19.9805H96.5977L101.298 32.8805L105.898 19.9805H111.298Z" fill="white"/>
<path d="M130.498 30.9805H115.998C116.498 33.5805 118.198 35.0805 120.698 35.0805C122.498 35.0805 123.998 34.1805 124.798 32.8805H130.298C128.898 37.0805 125.198 39.6805 120.798 39.6805C115.098 39.6805 110.898 35.2805 110.898 29.5805C110.898 23.7805 115.198 19.4805 120.798 19.4805C126.698 19.4805 130.698 23.9805 130.698 29.5805C130.598 29.9805 130.498 30.4805 130.498 30.9805ZM116.098 27.4805H125.398C124.698 25.1805 122.998 23.8805 120.698 23.8805C118.298 23.8805 116.698 25.1805 116.098 27.4805Z" fill="white"/>
<path d="M146.098 19.9781H151.298V39.1781C148.398 39.1781 146.098 36.8781 146.098 33.9781V19.9781ZM146.098 12.5781H151.298V17.3781H146.098V12.5781Z" fill="white"/>
<path d="M180 20.2789L175.2 32.0789L170.1 20.2789H161.4V18.5789C161.4 17.4789 162.3 16.4789 163.5 16.4789H166.4V12.3789H162.5C158.5 12.3789 156.4 14.7789 156.4 18.3789V20.0789H153V24.3789H156.3V33.8789C156.3 36.7789 158.6 39.0789 161.5 39.0789V24.4789H166.3L172.5 37.9789L172.4 38.1789C171.2 41.0789 170.6 41.7789 168.1 41.7789H166.3V46.4789H168.4C172.7 46.4789 174.7 44.4789 177 39.2789L185.4 20.3789H180V20.2789Z" fill="white"/>
<path d="M142.601 19.5781C142.501 19.5781 142.301 19.5781 142.201 19.5781C132.801 19.5781 132.801 26.1781 132.801 30.3781V33.6781C132.801 36.5781 135.101 38.8781 138.001 38.8781V28.9781C138.001 25.8781 139.201 24.5781 142.101 24.5781H144.301V19.5781H142.601Z" fill="white"/>
</g>
<defs>
<clipPath id="clip0_684_34019">
<rect width="190.7" height="57.7" fill="white" transform="translate(0 0.578125)"/>
</clipPath>
</defs>
</svg>
