<svg width="191" height="58" viewBox="0 0 191 58" fill="none" xmlns="http://www.w3.org/2000/svg">
<g clip-path="url(#clip0_5_31358)">
<path d="M34.4992 19C34.3992 19 34.1992 19 34.0992 19C24.6992 19 24.6992 25.6 24.6992 29.8V33.1C24.6992 36 26.9992 38.3 29.8992 38.3V28.4C29.8992 25.3 31.0992 24 33.9992 24H36.1992V19H34.4992Z" fill="#241F20"/>
<path d="M36.5977 28.7001C36.5977 22.9001 40.9977 18.6001 46.8977 18.6001C52.7977 18.6001 57.1977 22.9001 57.1977 28.7001C57.1977 34.5001 52.7977 38.8001 46.8977 38.8001C40.9977 38.8001 36.5977 34.5001 36.5977 28.7001ZM51.9977 28.7001C51.9977 25.6001 49.8977 23.5001 46.8977 23.5001C43.8977 23.5001 41.7977 25.6001 41.7977 28.7001C41.7977 31.8001 43.8977 33.9001 46.8977 33.9001C49.8977 33.9001 51.9977 31.8001 51.9977 28.7001Z" fill="#241F20"/>
<path d="M71.0977 28.7001C71.0977 22.9001 75.4977 18.6001 81.3977 18.6001C87.2977 18.6001 91.6977 22.9001 91.6977 28.7001C91.6977 34.5001 87.2977 38.8001 81.3977 38.8001C75.4977 38.8001 71.0977 34.5001 71.0977 28.7001ZM86.4977 28.7001C86.4977 25.6001 84.3977 23.5001 81.3977 23.5001C78.3977 23.5001 76.2977 25.6001 76.2977 28.7001C76.2977 31.8001 78.3977 33.9001 81.3977 33.9001C84.3977 33.9001 86.4977 31.8001 86.4977 28.7001Z" fill="#241F20"/>
<path d="M70.9008 19.3H64.5008V15.5H59.3008V33.2C59.3008 36.1 61.6008 38.4 64.5008 38.4V23.6H70.9008V19.3Z" fill="#241F20"/>
<path d="M10.3992 18.7001H5.19922V40.0001C5.19922 42.9001 7.49922 45.2001 10.3992 45.2001V18.7001Z" fill="#241F20"/>
<path fill-rule="evenodd" clip-rule="evenodd" d="M13.7984 23.1C17.5984 23.1 21.3984 25.8 21.3984 29.9C21.3984 30.5 21.2984 31.1 21.0984 31.7C22.6984 30.3 23.3984 28.4 23.3984 26.1C23.3984 25 23.1984 24 22.6984 23C21.6984 21 19.7984 19.7 17.5984 19.1C14.6984 18.4 9.99844 18.7 6.89844 18.7C6.89844 19.4 6.99844 23.1 13.7984 23.1Z" fill="url(#paint0_linear_5_31358)"/>
<path fill-rule="evenodd" clip-rule="evenodd" d="M16.9977 28.7C12.5977 31.9 12.5977 28.2 12.5977 34C12.6977 34 12.8977 34 12.9977 34C13.1977 34 13.3977 34 13.6977 34C16.6977 34 18.9977 33.3 20.7977 31.8C20.8977 31.7 20.9977 31.6 21.0977 31.6C21.2977 31 21.3977 30.4 21.3977 29.8C21.3977 26.1 17.9977 23 13.7977 23H13.6977H13.2977C14.9977 23 16.1977 23.3 16.8977 23.8C17.6977 24.3 17.9977 25.1 17.9977 26.2C18.1977 27.3 17.7977 28.2 16.9977 28.7Z" fill="url(#paint1_linear_5_31358)"/>
<path fill-rule="evenodd" clip-rule="evenodd" d="M16.9984 28.7C14.5984 30.5 6.89844 28.5 6.89844 36.6C6.89844 37.8 7.19844 38.9 7.69844 39.9C7.79844 39.3 7.89844 38.7 8.19844 38.2C8.99844 36.3 10.5984 34.7 12.5984 34C15.7984 33.2 18.1984 30.3 18.1984 27C18.1984 26.5 18.0984 26 17.9984 25.5C17.9984 25.7 18.0984 26 18.0984 26.3C18.1984 27.3 17.7984 28.2 16.9984 28.7Z" fill="url(#paint2_linear_5_31358)"/>
<path d="M111.298 19.4L103.698 38.6H98.8977L91.0977 19.4H96.5977L101.298 32.3L105.898 19.4H111.298Z" fill="#241F20"/>
<path d="M130.498 30.4H115.998C116.498 33 118.198 34.5 120.698 34.5C122.498 34.5 123.998 33.6 124.798 32.3H130.298C128.898 36.5 125.198 39.1 120.798 39.1C115.098 39.1 110.898 34.7 110.898 29C110.898 23.2 115.198 18.9 120.798 18.9C126.698 18.9 130.698 23.4 130.698 29C130.598 29.4 130.498 29.9 130.498 30.4ZM116.098 26.9H125.398C124.698 24.6 122.998 23.3 120.698 23.3C118.298 23.3 116.698 24.6 116.098 26.9Z" fill="#241F20"/>
<path d="M146.098 19.4H151.298V38.6C148.398 38.6 146.098 36.3 146.098 33.4V19.4ZM146.098 12H151.298V16.8H146.098V12Z" fill="#241F20"/>
<path d="M180 19.7L175.2 31.5L170.1 19.7H161.4V18C161.4 16.9 162.3 15.9 163.5 15.9H166.4V11.8H162.5C158.5 11.8 156.4 14.2 156.4 17.8V19.5H153V23.8H156.3V33.3C156.3 36.2 158.6 38.5 161.5 38.5V23.9H166.3L172.5 37.4001L172.4 37.6C171.2 40.5 170.6 41.2001 168.1 41.2001H166.3V45.9001H168.4C172.7 45.9001 174.7 43.9001 177 38.7001L185.4 19.8H180V19.7Z" fill="#241F20"/>
<path d="M142.601 19C142.501 19 142.301 19 142.201 19C132.801 19 132.801 25.6 132.801 29.8V33.1C132.801 36 135.101 38.3 138.001 38.3V28.4C138.001 25.3 139.201 24 142.101 24H144.301V19H142.601Z" fill="#241F20"/>
</g>
<defs>
<linearGradient id="paint0_linear_5_31358" x1="6.89844" y1="25.168" x2="23.4795" y2="25.168" gradientUnits="userSpaceOnUse">
<stop stop-color="#40A3B6"/>
<stop offset="1" stop-color="#4D64AE"/>
</linearGradient>
<linearGradient id="paint1_linear_5_31358" x1="12.6387" y1="28.5" x2="21.4003" y2="28.5" gradientUnits="userSpaceOnUse">
<stop stop-color="#68BD5B"/>
<stop offset="1" stop-color="#269262"/>
</linearGradient>
<linearGradient id="paint2_linear_5_31358" x1="6.89844" y1="32.7" x2="18.2617" y2="32.7" gradientUnits="userSpaceOnUse">
<stop stop-color="#D0CA29"/>
<stop offset="1" stop-color="#D5AD29"/>
</linearGradient>
<clipPath id="clip0_5_31358">
<rect width="190.7" height="57.7" fill="white"/>
</clipPath>
</defs>
</svg>
