<svg width="44" height="44" viewBox="0 0 44 44" fill="none" xmlns="http://www.w3.org/2000/svg">
<rect x="21.5227" width="1.38856" height="10.3071" rx="0.69428" fill="#666666"/>
<path d="M22.9114 1.64648H25.9968C27.2644 1.64648 28.292 2.67411 28.292 3.94176C28.292 5.2094 27.2644 6.23703 25.9968 6.23703H22.9114V1.64648Z" fill="#EF3C3C"/>
<path d="M22.9114 1.64648H26.9928C27.7104 1.64648 28.292 2.22816 28.292 2.9457C28.292 3.66323 27.7104 4.24491 26.9928 4.24491H22.9114V1.64648Z" fill="#F94A46"/>
<path d="M30.8559 16.6307C29.4674 10.0826 25.3306 8.50339 23.4358 8.53227C16.474 8.05309 14.1058 13.7618 13.7707 16.781L30.8559 16.6307Z" fill="#5E8DF1"/>
<path d="M23.5095 8.53125C17.7807 8.66117 16.2923 14.3777 16.408 16.7163H30.8999C30.1362 10.6879 25.6869 8.53125 23.5095 8.53125Z" fill="#A8CEF8"/>
<rect y="41.3145" width="44" height="2.68504" rx="1.34252" fill="#234CA7"/>
<rect x="10.2395" y="41.3145" width="33.7593" height="2.68504" rx="1.34252" fill="#5E8DF1"/>
<rect y="29.2773" width="44" height="2.68504" rx="1.34252" fill="#234CA7"/>
<rect x="3.38599" y="29.2773" width="40.6154" height="2.68504" rx="1.34252" fill="#5E8DF1"/>
<rect x="6.94409" y="24.5996" width="30.0276" height="2.68504" rx="1.34252" fill="#234CA7"/>
<rect x="9.98193" y="24.5996" width="26.9901" height="2.68504" rx="1.34252" fill="#5E8DF1"/>
<rect x="11.8901" y="16.543" width="20.2209" height="2.68504" rx="1.34252" fill="#234CA7"/>
<rect x="15.1902" y="16.543" width="16.9231" height="2.68504" rx="1.34252" fill="#5E8DF1"/>
<rect x="11.3696" y="27.2832" width="24.213" height="14.0315" fill="#A8CEF8"/>
<rect x="13.1914" y="29.0176" width="1.30177" height="10.7401" rx="0.650887" fill="#234CA7"/>
<rect x="16.4011" y="29.0176" width="1.30177" height="10.7401" rx="0.650887" fill="#234CA7"/>
<rect x="19.6152" y="29.0176" width="1.30177" height="10.7401" rx="0.650887" fill="#234CA7"/>
<rect x="22.825" y="29.0176" width="1.30177" height="10.7401" rx="0.650887" fill="#234CA7"/>
<rect x="26.0347" y="29.0176" width="1.30177" height="10.7401" rx="0.650887" fill="#234CA7"/>
<rect x="29.2446" y="29.0176" width="1.30177" height="10.7401" rx="0.650887" fill="#234CA7"/>
<rect x="32.4585" y="29.0176" width="1.30177" height="10.7401" rx="0.650887" fill="#234CA7"/>
<rect x="8.76562" y="27.2832" width="2.60355" height="14.0315" fill="#8EB2FF"/>
<rect x="35.5825" y="31.9609" width="6.59566" height="9.35432" fill="#C2D5FF"/>
<rect opacity="0.4" x="35.5825" y="29.2754" width="2.69033" height="12.0394" fill="#5E8DF1"/>
<rect x="13.5396" y="19.2285" width="17.357" height="5.37007" fill="#5E8DF1"/>
<rect x="16.5774" y="19.2285" width="14.3195" height="5.37007" fill="#A8CEF8"/>
<rect x="17.4407" y="20.6133" width="1.30177" height="2.59842" rx="0.650887" fill="#234CA7"/>
<rect x="20.6504" y="20.6133" width="1.30177" height="2.59842" rx="0.650887" fill="#234CA7"/>
<rect x="23.8645" y="20.6133" width="1.30177" height="2.59842" rx="0.650887" fill="#234CA7"/>
<rect x="27.0742" y="20.6133" width="1.30177" height="2.59842" rx="0.650887" fill="#234CA7"/>
<rect x="37.5808" y="38.8906" width="1.29921" height="2.60355" rx="0.649606" transform="rotate(-90 37.5808 38.8906)" fill="#234CA7"/>
<rect x="37.5808" y="35.6855" width="1.29921" height="2.60355" rx="0.649606" transform="rotate(-90 37.5808 35.6855)" fill="#234CA7"/>
</svg>
