<svg width="30" height="30" viewBox="0 0 30 30" fill="none" xmlns="http://www.w3.org/2000/svg">
<circle cx="15" cy="15" r="15" fill="url(#paint0_linear_4203_3442)"/>
<path d="M9.50382 22L14.4178 9.4H16.6138L21.4918 22H19.0618L16.3618 14.836C16.3018 14.692 16.2178 14.464 16.1098 14.152C16.0138 13.84 15.9058 13.504 15.7858 13.144C15.6658 12.772 15.5578 12.43 15.4618 12.118C15.3658 11.794 15.2938 11.56 15.2458 11.416L15.6958 11.398C15.6238 11.638 15.5398 11.908 15.4438 12.208C15.3478 12.508 15.2458 12.82 15.1378 13.144C15.0298 13.468 14.9218 13.78 14.8138 14.08C14.7178 14.38 14.6278 14.65 14.5438 14.89L11.8438 22H9.50382ZM11.7358 19.12L12.5458 17.086H18.2878L19.1518 19.12H11.7358Z" fill="white"/>
<defs>
<linearGradient id="paint0_linear_4203_3442" x1="15" y1="0" x2="15" y2="30" gradientUnits="userSpaceOnUse">
<stop offset="0.0001" stop-color="#112B64"/>
<stop offset="1" stop-color="#4B6BB0"/>
</linearGradient>
</defs>
</svg>
