<svg width="18" height="18" viewBox="0 0 18 18" fill="none" xmlns="http://www.w3.org/2000/svg">
<path d="M1 9L2.77778 7.22222M2.77778 7.22222L9 1L15.2222 7.22222M2.77778 7.22222V16.1111C2.77778 16.3469 2.87143 16.573 3.03813 16.7397C3.20483 16.9064 3.43092 17 3.66667 17H6.33333M15.2222 7.22222L17 9M15.2222 7.22222V16.1111C15.2222 16.3469 15.1286 16.573 14.9619 16.7397C14.7952 16.9064 14.5691 17 14.3333 17H11.6667M6.33333 17C6.56908 17 6.79517 16.9064 6.96187 16.7397C7.12857 16.573 7.22222 16.3469 7.22222 16.1111V12.5556C7.22222 12.3198 7.31587 12.0937 7.48257 11.927C7.64927 11.7603 7.87536 11.6667 8.11111 11.6667H9.88889C10.1246 11.6667 10.3507 11.7603 10.5174 11.927C10.6841 12.0937 10.7778 12.3198 10.7778 12.5556V16.1111C10.7778 16.3469 10.8714 16.573 11.0381 16.7397C11.2048 16.9064 11.4309 17 11.6667 17M6.33333 17H11.6667" stroke="#525F7F" stroke-width="2" stroke-linecap="round" stroke-linejoin="round"/>
</svg>
