<svg width="34" height="23" viewBox="0 0 34 23" fill="none" xmlns="http://www.w3.org/2000/svg">
<path d="M8.66537 17.3307C6.35981 17.3307 4.39425 16.518 2.7687 14.8924C1.14314 13.2668 0.330921 11.3018 0.332032 8.9974C0.332032 6.69185 1.14481 4.72629 2.77037 3.10073C4.39592 1.47518 6.36092 0.662957 8.66537 0.664068H13.6654C14.1376 0.664068 14.5337 0.824068 14.8537 1.14407C15.1737 1.46407 15.3331 1.85962 15.332 2.33073C15.332 2.80296 15.172 3.19907 14.852 3.51907C14.532 3.83907 14.1365 3.99851 13.6654 3.9974H8.66537C7.27648 3.9974 6.09592 4.48351 5.1237 5.45574C4.15148 6.42796 3.66537 7.60851 3.66537 8.9974C3.66537 10.3863 4.15148 11.5668 5.1237 12.5391C6.09592 13.5113 7.27648 13.9974 8.66537 13.9974H13.6654C14.1376 13.9974 14.5337 14.1574 14.8537 14.4774C15.1737 14.7974 15.3331 15.193 15.332 15.6641C15.332 16.1363 15.172 16.5324 14.852 16.8524C14.532 17.1724 14.1365 17.3318 13.6654 17.3307H8.66537ZM11.9987 10.6641C11.5265 10.6641 11.1304 10.5041 10.8104 10.1841C10.4904 9.86407 10.3309 9.46851 10.332 8.9974C10.332 8.52518 10.492 8.12907 10.812 7.80907C11.132 7.48907 11.5276 7.32962 11.9987 7.33073H21.9987C22.4709 7.33073 22.867 7.49073 23.187 7.81073C23.507 8.13073 23.6665 8.52629 23.6654 8.9974C23.6654 9.46962 23.5054 9.86574 23.1854 10.1857C22.8654 10.5057 22.4698 10.6652 21.9987 10.6641H11.9987ZM33.6654 8.9974H30.332C30.332 7.60851 29.8459 6.42796 28.8737 5.45574C27.9015 4.48351 26.7209 3.9974 25.332 3.9974H20.332C19.8598 3.9974 19.4637 3.8374 19.1437 3.5174C18.8237 3.1974 18.6643 2.80185 18.6654 2.33073C18.6654 1.85851 18.8254 1.4624 19.1454 1.1424C19.4654 0.822402 19.8609 0.662957 20.332 0.664068H25.332C27.6376 0.664068 29.6031 1.47685 31.2287 3.1024C32.8543 4.72796 33.6665 6.69296 33.6654 8.9974ZM26.9987 22.3307C26.5265 22.3307 26.1304 22.1707 25.8104 21.8507C25.4904 21.5307 25.3309 21.1352 25.332 20.6641V17.3307H21.9987C21.5265 17.3307 21.1304 17.1707 20.8104 16.8507C20.4904 16.5307 20.3309 16.1352 20.332 15.6641C20.332 15.1918 20.492 14.7957 20.812 14.4757C21.132 14.1557 21.5276 13.9963 21.9987 13.9974H25.332V10.6641C25.332 10.1918 25.492 9.79573 25.812 9.47573C26.132 9.15573 26.5276 8.99629 26.9987 8.9974C27.4709 8.9974 27.867 9.1574 28.187 9.4774C28.507 9.7974 28.6665 10.193 28.6654 10.6641V13.9974H31.9987C32.4709 13.9974 32.867 14.1574 33.187 14.4774C33.507 14.7974 33.6665 15.193 33.6654 15.6641C33.6654 16.1363 33.5054 16.5324 33.1854 16.8524C32.8654 17.1724 32.4698 17.3318 31.9987 17.3307H28.6654V20.6641C28.6654 21.1363 28.5054 21.5324 28.1854 21.8524C27.8654 22.1724 27.4698 22.3318 26.9987 22.3307Z" fill="#5B84B5"/>
</svg>
