<svg width="16" height="16" viewBox="0 0 16 16" fill="none" xmlns="http://www.w3.org/2000/svg">
<path d="M10.2032 5.6C10.976 5.6 11.6032 6.2272 11.6032 7V9.6H11.6V10.4H4.4V8H4.4016V7C4.4016 6.2272 5.028 5.6 5.8016 5.6H10.2032ZM16 7C16 6.6287 15.8525 6.2726 15.5899 6.01005C15.3274 5.7475 14.9713 5.6 14.6 5.6H11.9C12.2144 5.98 12.4032 6.468 12.4032 7V8H12.4V10.4H15.4C15.5591 10.4 15.7117 10.3368 15.8243 10.2243C15.9368 10.1117 16 9.95913 16 9.8V7ZM3.6 9.6H3.6016V7L3.6088 6.824C3.64334 6.37447 3.81666 5.94676 4.1048 5.6H1.4L1.2848 5.6048C0.93464 5.63371 0.608151 5.79323 0.370144 6.05169C0.132137 6.31015 1.31237e-05 6.64865 0 7V9.8C0 10.1312 0.2688 10.4 0.6 10.4H3.6V9.6ZM8 0C8.63652 0 9.24697 0.252856 9.69706 0.702944C10.1471 1.15303 10.4 1.76348 10.4 2.4C10.4 3.03652 10.1471 3.64697 9.69706 4.09706C9.24697 4.54714 8.63652 4.8 8 4.8C7.36348 4.8 6.75303 4.54714 6.30294 4.09706C5.85286 3.64697 5.6 3.03652 5.6 2.4C5.6 1.76348 5.85286 1.15303 6.30294 0.702944C6.75303 0.252856 7.36348 0 8 0ZM13.2 0.8C13.7304 0.8 14.2391 1.01071 14.6142 1.38579C14.9893 1.76086 15.2 2.26957 15.2 2.8C15.2 3.33043 14.9893 3.83914 14.6142 4.21421C14.2391 4.58929 13.7304 4.8 13.2 4.8C12.6696 4.8 12.1609 4.58929 11.7858 4.21421C11.4107 3.83914 11.2 3.33043 11.2 2.8C11.2 2.26957 11.4107 1.76086 11.7858 1.38579C12.1609 1.01071 12.6696 0.8 13.2 0.8ZM2.8 0.8C3.33043 0.8 3.83914 1.01071 4.21421 1.38579C4.58929 1.76086 4.8 2.26957 4.8 2.8C4.8 3.33043 4.58929 3.83914 4.21421 4.21421C3.83914 4.58929 3.33043 4.8 2.8 4.8C2.26957 4.8 1.76086 4.58929 1.38579 4.21421C1.01071 3.83914 0.8 3.33043 0.8 2.8C0.8 2.26957 1.01071 1.76086 1.38579 1.38579C1.76086 1.01071 2.26957 0.8 2.8 0.8ZM0 11.8C0 11.6409 0.063214 11.4883 0.175736 11.3757C0.288258 11.2632 0.44087 11.2 0.6 11.2H15.4C15.5591 11.2 15.7117 11.2632 15.8243 11.3757C15.9368 11.4883 16 11.6409 16 11.8V12.2C16 12.9956 15.6839 13.7587 15.1213 14.3213C14.5587 14.8839 13.7956 15.2 13 15.2H3C2.20435 15.2 1.44129 14.8839 0.87868 14.3213C0.316071 13.7587 0 12.9956 0 12.2V11.8Z" fill="white"/>
</svg>
