<svg width="17" height="18" viewBox="0 0 17 18" fill="none" xmlns="http://www.w3.org/2000/svg">
<path d="M10.958 4.52138L5.08794 10.3915C4.91769 10.5559 4.78189 10.7526 4.68846 10.9701C4.59504 11.1876 4.54586 11.4215 4.54381 11.6582C4.54175 11.8949 4.58685 12.1296 4.67648 12.3487C4.76611 12.5677 4.89848 12.7668 5.06585 12.9342C5.23322 13.1015 5.43225 13.2339 5.65133 13.3235C5.8704 13.4131 6.10513 13.4583 6.34182 13.4562C6.57852 13.4541 6.81243 13.405 7.02991 13.3115C7.24739 13.2181 7.44409 13.0823 7.60853 12.9121L13.3253 7.04197C13.9747 6.36957 14.3341 5.46899 14.326 4.53421C14.3179 3.59943 13.9429 2.70524 13.2819 2.04422C12.6209 1.3832 11.7267 1.00826 10.7919 1.00013C9.85712 0.992012 8.95654 1.35136 8.28414 2.00079L2.56646 7.86999C1.56347 8.87298 1 10.2333 1 11.6518C1 13.0702 1.56347 14.4305 2.56646 15.4335C3.56945 16.4365 4.9298 17 6.34824 17C7.76668 17 9.12703 16.4365 10.13 15.4335L15.7069 9.86917" stroke="white" stroke-width="2" stroke-linecap="round" stroke-linejoin="round"/>
</svg>
