<svg width="16" height="16" viewBox="0 0 16 16" fill="none" xmlns="http://www.w3.org/2000/svg">
<path d="M7.99957 6C7.53687 6.0001 7.08851 6.16063 6.7309 6.45424C6.37328 6.74785 6.12853 7.15638 6.03835 7.61021C5.94818 8.06404 6.01815 8.5351 6.23634 8.94313C6.45454 9.35116 6.80746 9.67091 7.23497 9.8479C7.66249 10.0249 8.13815 10.0482 8.5809 9.91378C9.02366 9.77938 9.40612 9.49563 9.66312 9.11086C9.92012 8.72609 10.0358 8.26412 9.99034 7.80365C9.94491 7.34318 9.74123 6.9127 9.414 6.58557C9.03882 6.21056 8.53004 5.99992 7.99957 6Z" fill="white"/>
<path d="M15.6504 7.15311L14.0098 5.51213V3.19257C14.0099 3.03469 13.9788 2.87834 13.9185 2.73246C13.8581 2.58658 13.7695 2.45402 13.6579 2.34236C13.5463 2.2307 13.4138 2.14213 13.2679 2.0817C13.1221 2.02126 12.9657 1.99016 12.8078 1.99016H10.4879L8.84729 0.349581C8.62214 0.125681 8.31753 0 8 0C7.68247 0 7.37785 0.125681 7.15271 0.349581L5.51172 1.99016H3.19217C3.03425 1.99011 2.87787 2.02117 2.73196 2.08158C2.58605 2.14199 2.45348 2.23055 2.34181 2.34222C2.23015 2.45389 2.14158 2.58646 2.08117 2.73237C2.02077 2.87827 1.9897 3.03466 1.98975 3.19257V5.51213L0.349581 7.15311C0.125681 7.37826 0 7.68288 0 8.00041C0 8.31793 0.125681 8.62255 0.349581 8.8477L1.98975 10.4883V12.8082C1.98975 12.9661 2.02086 13.1225 2.08129 13.2683C2.14172 13.4142 2.2303 13.5467 2.34196 13.6583C2.45362 13.7699 2.58617 13.8585 2.73206 13.9189C2.87794 13.9792 3.03428 14.0103 3.19217 14.0102H5.51172L7.15271 15.6508C7.37785 15.8747 7.68247 16.0004 8 16.0004C8.31753 16.0004 8.62214 15.8747 8.84729 15.6508L10.4879 14.0102H12.8078C13.1266 14.0102 13.4324 13.8836 13.6578 13.6582C13.8832 13.4328 14.0098 13.127 14.0098 12.8082V10.4883L15.6504 8.8477C15.8743 8.62255 16 8.31793 16 8.00041C16 7.68288 15.8743 7.37826 15.6504 7.15311ZM10.5496 10.55C9.95981 11.1399 9.18372 11.5071 8.35357 11.5889C7.52342 11.6708 6.69058 11.4622 5.99694 10.9989C5.3033 10.5355 4.79178 9.84595 4.54955 9.04772C4.30731 8.2495 4.34934 7.39197 4.66848 6.62126C4.98762 5.85055 5.56411 5.21433 6.29974 4.82102C7.03537 4.42771 7.88461 4.30163 8.70278 4.46426C9.52094 4.6269 10.2574 5.06819 10.7867 5.71295C11.316 6.3577 11.6053 7.16603 11.6054 8.0002C11.6055 8.9565 11.2257 9.87367 10.5496 10.55Z" fill="white"/>
</svg>
