<svg width="24" height="24" viewBox="0 0 24 24" fill="none" xmlns="http://www.w3.org/2000/svg">
<path d="M16.1191 14.8809L13.237 12L16.1191 9.11906C16.2004 9.03776 16.2649 8.94125 16.3089 8.83503C16.3528 8.72881 16.3755 8.61497 16.3755 8.5C16.3755 8.38503 16.3528 8.27118 16.3089 8.16496C16.2649 8.05874 16.2004 7.96223 16.1191 7.88093C16.0378 7.79964 15.9413 7.73515 15.835 7.69115C15.7288 7.64716 15.615 7.62451 15.5 7.62451C15.385 7.62451 15.2712 7.64716 15.165 7.69115C15.0588 7.73515 14.9622 7.79964 14.8809 7.88093L12 10.763L9.11907 7.88093C9.03777 7.79964 8.94126 7.73515 8.83504 7.69115C8.72882 7.64716 8.61498 7.62451 8.50001 7.62451C8.38504 7.62451 8.27119 7.64716 8.16497 7.69115C8.05875 7.73515 7.96224 7.79964 7.88094 7.88093C7.79965 7.96223 7.73516 8.05874 7.69116 8.16496C7.64716 8.27118 7.62452 8.38503 7.62452 8.5C7.62452 8.61497 7.64716 8.72881 7.69116 8.83503C7.73516 8.94125 7.79965 9.03776 7.88094 9.11906L10.763 12L7.88094 14.8809C7.71676 15.0451 7.62452 15.2678 7.62452 15.5C7.62452 15.7322 7.71676 15.9549 7.88094 16.1191C8.04513 16.2832 8.26781 16.3755 8.50001 16.3755C8.7322 16.3755 8.95488 16.2832 9.11907 16.1191L12 13.237L14.8809 16.1191C14.9622 16.2004 15.0588 16.2648 15.165 16.3088C15.2712 16.3528 15.385 16.3755 15.5 16.3755C15.615 16.3755 15.7288 16.3528 15.835 16.3088C15.9413 16.2648 16.0378 16.2004 16.1191 16.1191C16.2004 16.0378 16.2649 15.9413 16.3089 15.835C16.3528 15.7288 16.3755 15.615 16.3755 15.5C16.3755 15.385 16.3528 15.2712 16.3089 15.165C16.2649 15.0587 16.2004 14.9622 16.1191 14.8809ZM23.375 12C23.375 9.75024 22.7079 7.551 21.458 5.68039C20.2081 3.80978 18.4315 2.35181 16.353 1.49087C14.2745 0.629921 11.9874 0.404658 9.78085 0.843565C7.57432 1.28247 5.54749 2.36583 3.95667 3.95666C2.36584 5.54748 1.28248 7.57431 0.843573 9.78085C0.404666 11.9874 0.629929 14.2745 1.49088 16.353C2.35182 18.4315 3.80978 20.2081 5.68039 21.458C7.551 22.7079 9.75024 23.375 12 23.375C15.0159 23.3718 17.9073 22.1724 20.0398 20.0398C22.1724 17.9073 23.3718 15.0159 23.375 12ZM21.625 12C21.625 13.9036 21.0605 15.7645 20.0029 17.3474C18.9453 18.9302 17.4421 20.1638 15.6833 20.8923C13.9246 21.6208 11.9893 21.8114 10.1223 21.4401C8.25519 21.0687 6.54018 20.152 5.1941 18.8059C3.84802 17.4598 2.93133 15.7448 2.55995 13.8777C2.18856 12.0107 2.37917 10.0754 3.10766 8.31667C3.83616 6.55793 5.06982 5.05471 6.65264 3.9971C8.23547 2.93949 10.0964 2.375 12 2.375C14.5518 2.37789 16.9983 3.39288 18.8027 5.19729C20.6071 7.0017 21.6221 9.44818 21.625 12Z" fill="#00234B"/>
</svg>
