<svg width="16" height="18" viewBox="0 0 16 18" fill="none" xmlns="http://www.w3.org/2000/svg">
<path d="M5.43797 8.59179e-06C5.97583 -0.00155437 6.49234 0.210297 6.8742 0.589086C7.25606 0.967875 7.47207 1.48267 7.47484 2.02052V8.70562C7.47196 9.24344 7.25591 9.75817 6.87408 10.1369C6.49225 10.5157 5.97579 10.7276 5.43797 10.7261H2.04317C1.50432 10.729 0.986384 10.5178 0.603237 10.1389C0.220091 9.76002 0.0031076 9.24447 0 8.70562L0 2.02052C0.00288668 1.48263 0.218991 0.967837 0.600915 0.58906C0.982838 0.210284 1.4994 -0.00155474 2.0373 8.59179e-06H5.43797Z" fill="white"/>
<path d="M5.4386 11.9846C5.99298 12.0006 6.51845 12.2355 6.90014 12.6379C7.28183 13.0403 7.48869 13.5774 7.47548 14.1318V15.512C7.49061 16.0677 7.28461 16.6066 6.90271 17.0106C6.52082 17.4145 5.99424 17.6503 5.4386 17.6664H2.0438C1.48802 17.652 0.960681 17.4176 0.577592 17.0147C0.194503 16.6117 -0.0130085 16.0733 0.000632379 15.5175V14.1373C-0.0125774 13.5828 0.194275 13.0457 0.575966 12.6433C0.957657 12.241 1.48313 12.0061 2.03751 11.9901H5.4365L5.4386 11.9846Z" fill="white"/>
<path d="M10.5607 17.6649C10.0229 17.6665 9.50641 17.4547 9.1245 17.076C8.74259 16.6973 8.52643 16.1826 8.52344 15.6448V8.95802C8.52632 8.42013 8.74243 7.90534 9.12435 7.52656C9.50628 7.14778 10.0228 6.93595 10.5607 6.93751H13.9597C14.4976 6.93595 15.0142 7.14778 15.3961 7.52656C15.778 7.90534 15.9941 8.42013 15.997 8.95802V15.6431C15.9945 16.181 15.7787 16.6959 15.397 17.075C15.0153 17.454 14.4989 17.6661 13.961 17.6649H10.5607Z" fill="white"/>
<path d="M10.5614 5.68051C10.0069 5.66458 9.48133 5.42975 9.09955 5.02737C8.71777 4.62498 8.51086 4.08779 8.52406 3.53327V2.1485C8.51052 1.59376 8.71728 1.05625 9.09909 0.653591C9.48091 0.250934 10.0067 0.0159268 10.5614 0L13.9604 0C14.5149 0.0159279 15.0405 0.250819 15.4223 0.653293C15.8041 1.05577 16.011 1.59307 15.9976 2.14766V3.52782C16.0109 4.08234 15.8039 4.61953 15.4222 5.02191C15.0404 5.4243 14.5148 5.65913 13.9604 5.67506H10.5656L10.5614 5.68051Z" fill="white"/>
</svg>
