<svg width="16" height="19" viewBox="0 0 16 19" fill="none" xmlns="http://www.w3.org/2000/svg">
<path d="M7.0232 0H2.85051C2.09408 0 1.3694 0.300531 0.834682 0.834682C0.300531 1.3694 0 2.09408 0 2.85051V15.5702C0 16.3261 0.300531 17.0513 0.834682 17.5855C1.3694 18.1202 2.09408 18.4202 2.84994 18.4202H13.1501C13.9059 18.4202 14.6312 18.1196 15.1653 17.5855C15.6995 17.0513 16 16.3261 16 15.5702V8.97793C15.9977 7.88014 15.5588 6.82829 14.7792 6.05428L9.93438 1.20836C9.16151 0.437187 8.11532 0.00226816 7.0232 0Z" fill="white"/>
<path d="M6.86009 8.39214H3.87576C3.49981 8.39214 3.19531 8.08764 3.19531 7.7117C3.19531 7.33575 3.49981 7.03125 3.87576 7.03125H6.86009C7.23603 7.03125 7.54053 7.33575 7.54053 7.7117C7.54053 8.08764 7.23603 8.39214 6.86009 8.39214Z" fill="black"/>
<path d="M11.2303 12.7984H3.87576C3.49981 12.7984 3.19531 12.4939 3.19531 12.1179C3.19531 11.742 3.49981 11.4375 3.87576 11.4375H11.2303C11.6062 11.4375 11.9107 11.742 11.9107 12.1179C11.9107 12.4939 11.6062 12.7984 11.2303 12.7984Z" fill="black"/>
</svg>
