<svg width="16" height="16" viewBox="0 0 16 16" fill="none" xmlns="http://www.w3.org/2000/svg">
<path d="M15.8569 0.661589C15.8352 0.533323 15.7741 0.415003 15.6821 0.32305C15.59 0.231098 15.4717 0.170074 15.3434 0.148448C12.5377 -0.314644 9.66131 0.314991 7.30571 1.90785C6.13665 1.63767 4.91818 1.6682 3.76412 1.99659C2.61005 2.32498 1.55805 2.94052 0.706366 3.7857L0.186457 4.29926C0.106136 4.37848 0.0487112 4.47792 0.0202513 4.58709C-0.00820853 4.69625 -0.00664557 4.81107 0.024775 4.91942C0.0561955 5.02776 0.116306 5.12561 0.198753 5.20261C0.281199 5.27961 0.382918 5.3329 0.493157 5.35685L3.86136 6.20292L9.81388 12.1563L10.6464 15.5118C10.6724 15.6201 10.7267 15.7195 10.8038 15.7999C10.8809 15.8803 10.978 15.9387 11.0851 15.9691C11.1413 15.9751 11.1981 15.9751 11.2543 15.9691C11.4207 15.9697 11.5805 15.9045 11.6989 15.7876L12.2121 15.2677C13.0575 14.4162 13.6732 13.3642 14.0017 12.2101C14.3302 11.056 14.3607 9.83746 14.0903 8.66837C15.678 6.32209 16.3099 3.45812 15.8569 0.661589Z" fill="white"/>
<path d="M6.33589 9.63117C5.64591 8.93306 4.71013 8.53266 3.72873 8.51562C2.73278 8.51655 1.77797 8.91293 1.07419 9.61763C1.00398 9.68766 0.951444 9.77341 0.920933 9.86776C0.890422 9.96212 0.882809 10.0624 0.898723 10.1603C0.914637 10.2582 0.953622 10.3508 1.01245 10.4307C1.07129 10.5105 1.14827 10.5752 1.23706 10.6194L2.52054 11.2455L1.80688 13.4068C1.77117 13.5165 1.76652 13.634 1.79345 13.7463C1.82037 13.8585 1.87782 13.9611 1.95944 14.0427C2.04106 14.1243 2.14367 14.1818 2.25591 14.2087C2.36815 14.2356 2.48566 14.231 2.59542 14.1953L4.73682 13.4804L5.36291 14.7325C5.40696 14.821 5.47131 14.8978 5.55072 14.9566C5.63013 15.0154 5.72233 15.0546 5.81979 15.071H5.92132C6.00419 15.0708 6.08618 15.054 6.16252 15.0218C6.23886 14.9895 6.308 14.9424 6.36593 14.8831C7.04821 14.1776 7.42722 13.233 7.42185 12.2515C7.41647 11.27 7.02714 10.3296 6.33716 9.63159L6.33589 9.63117Z" fill="white"/>
<path d="M12.2787 7.26886C12.5115 7.03628 12.6962 6.7601 12.8222 6.4561C12.9482 6.15211 13.013 5.82626 13.013 5.49719C13.013 5.16812 12.9482 4.84227 12.8222 4.53828C12.6962 4.23428 12.5115 3.9581 12.2787 3.72552C11.8014 3.26987 11.1669 3.01562 10.507 3.01562C9.84717 3.01563 9.21266 3.26987 8.73537 3.72552C8.49903 3.95736 8.31097 4.23374 8.18208 4.53869C8.05318 4.84364 7.986 5.17111 7.9844 5.50218C7.98281 5.83324 8.04685 6.16135 8.17281 6.46752C8.29877 6.77369 8.48416 7.05187 8.71826 7.28597C8.95236 7.52007 9.23054 7.70546 9.53671 7.83142C9.84288 7.95738 10.171 8.02142 10.5021 8.01982C10.8331 8.01823 11.1606 7.95105 11.4655 7.82215C11.7705 7.69325 12.0469 7.5052 12.2787 7.26886ZM9.25486 5.49719C9.25376 5.20765 9.35309 4.9267 9.53594 4.7022C9.71879 4.4777 9.97382 4.32356 10.2576 4.26604C10.5414 4.20852 10.8363 4.25118 11.0921 4.38676C11.348 4.52233 11.5489 4.74243 11.6606 5.00954C11.7723 5.27665 11.788 5.57424 11.7049 5.85159C11.6218 6.12895 11.4451 6.3689 11.2048 6.53056C10.9646 6.69222 10.6758 6.76558 10.3876 6.73814C10.0993 6.71069 9.82955 6.58415 9.62417 6.38006C9.38891 6.14636 9.25607 5.8288 9.25486 5.49719Z" fill="#00234B"/>
</svg>
