<svg width="16" height="18" viewBox="0 0 16 18" fill="none" xmlns="http://www.w3.org/2000/svg">
<path d="M14.3621 4.52566C16.3108 5.52663 16.4706 7.91193 15.1075 9.82868C14.2556 11.0213 12.6264 11.8306 11.4231 11.7241L8.61187 17.0378H7.49376L4.67188 11.7241C3.46859 11.8945 1.76481 11.0533 0.891619 9.81803C-0.471404 7.90128 -0.311675 5.51599 1.64767 4.52566C2.1588 4.2701 2.66994 4.17426 3.17042 4.19556C3.15978 4.6215 3.18107 5.04745 3.24496 5.48404C3.52183 7.28366 4.74642 9.243 6.29047 10.1375C6.08815 10.7232 5.76869 11.1917 5.35339 11.4686L7.49376 15.5257V9.49857C6.04555 9.10457 4.57604 7.19847 4.29918 5.32431C3.87323 2.50243 5.36404 0 8.0262 0C10.6884 0 12.1792 2.50243 11.7532 5.32431C11.4763 7.19847 10.0068 9.10457 8.55863 9.49857V15.6428L10.7629 11.5538C10.2944 11.3088 9.94295 10.7977 9.70868 10.1694C11.2847 9.2856 12.5306 7.30495 12.8074 5.48404C12.8713 5.04745 12.8926 4.61085 12.882 4.18491C13.3718 4.17426 13.8616 4.2701 14.3621 4.52566Z" fill="white"/>
</svg>
