<svg width="16" height="14" viewBox="0 0 16 14" fill="none" xmlns="http://www.w3.org/2000/svg">
<path d="M14.6451 13.6724C15.0043 13.6719 15.3486 13.529 15.6026 13.275C15.8566 13.021 15.9995 12.6766 16 12.3174V7.98691C15.9747 3.86306 12.7471 0.371159 8.65172 0.0386641H8.6468C8.42785 0.0127678 8.20756 -0.000142209 7.98708 1.88264e-06C7.74944 -0.000177724 7.51197 0.0124939 7.2757 0.0379611C7.15936 0.0509657 7.05603 0.0639703 6.95269 0.0769748C6.85325 0.087147 6.75453 0.103463 6.6571 0.12583L6.64656 0.127939C4.7873 0.438284 3.09862 1.39866 1.8814 2.83795C0.664192 4.27723 -0.00248176 6.10193 0.00017575 7.98691V12.3171C-0.00271951 12.4968 0.0301829 12.6753 0.0969663 12.8422C0.16375 13.0092 0.263079 13.1611 0.389167 13.2892C0.515255 13.4174 0.665581 13.5191 0.831387 13.5886C0.997194 13.6581 1.17517 13.6938 1.35493 13.6938C1.5347 13.6938 1.71268 13.6581 1.87848 13.5886C2.04429 13.5191 2.19461 13.4174 2.3207 13.2892C2.44679 13.1611 2.54612 13.0092 2.6129 12.8422C2.67969 12.6753 2.71259 12.4968 2.70969 12.3171V8.35104C2.70882 8.03488 2.5977 7.72892 2.39547 7.48589C2.19324 7.24286 1.91258 7.07798 1.60185 7.01965C1.56551 7.01273 1.53336 6.99177 1.51237 6.96131C1.49138 6.93085 1.48325 6.89334 1.48972 6.85692C1.73163 5.46789 2.41117 4.19255 3.42916 3.21705C3.45198 3.1951 3.48153 3.18149 3.51304 3.17843C3.54455 3.17537 3.57618 3.18303 3.60279 3.20018C3.78297 3.3151 3.99484 3.37018 4.20817 3.35755C4.42151 3.34493 4.62541 3.26525 4.79077 3.12988C5.66946 2.41217 6.77801 2.03223 8.00009 2.03223C9.42778 2.03223 10.5451 2.64133 11.2308 3.15238C11.408 3.28853 11.6257 3.3612 11.8491 3.35869C12.0434 3.35843 12.2336 3.30283 12.3974 3.19842C12.424 3.18136 12.4555 3.17375 12.487 3.17681C12.5184 3.17987 12.5479 3.19342 12.5707 3.21529C13.5861 4.18747 14.2656 5.45783 14.5105 6.84216C14.517 6.87868 14.5089 6.91632 14.4878 6.94687C14.4667 6.97743 14.4345 6.99841 14.398 7.00524C14.0872 7.06356 13.8066 7.22845 13.6044 7.47148C13.4021 7.71451 13.291 8.02046 13.2901 8.33663V12.3171C13.2905 12.6763 13.4334 13.0208 13.6874 13.2749C13.9414 13.5289 14.2858 13.6719 14.6451 13.6724Z" fill="white"/>
<path d="M8.00516 3.85938C7.25036 3.85893 6.51069 4.07108 5.87087 4.47153C5.23105 4.87198 4.71696 5.44454 4.38746 6.12363C4.05797 6.80272 3.9264 7.56088 4.00783 8.31128C4.08925 9.06167 4.38038 9.77397 4.84787 10.3666V11.9011H7.90112V11.8958C7.93241 11.8958 7.96896 11.9011 7.99989 11.9011C9.06629 11.9018 10.0893 11.4789 10.8438 10.7253C11.5984 9.97173 12.0227 8.94928 12.0234 7.88288C12.0241 6.81648 11.6011 5.79348 10.8476 5.03892C10.094 4.28437 9.07156 3.86007 8.00516 3.85938ZM5.96099 7.2251C6.08959 7.22524 6.21526 7.26351 6.32211 7.33507C6.42897 7.40663 6.5122 7.50828 6.56128 7.62714C6.61037 7.74601 6.6231 7.87676 6.59788 8.00287C6.57265 8.12897 6.5106 8.24476 6.41957 8.3356C6.32853 8.42644 6.2126 8.48824 6.08645 8.51319C5.96029 8.53815 5.82956 8.52513 5.7108 8.47579C5.59204 8.42644 5.49058 8.34299 5.41925 8.23599C5.34791 8.12898 5.30992 8.00322 5.31005 7.87462C5.31015 7.78923 5.32706 7.7047 5.35982 7.62584C5.39258 7.54699 5.44055 7.47536 5.501 7.41505C5.56144 7.35473 5.63318 7.30691 5.7121 7.27432C5.79102 7.24173 5.8756 7.225 5.96099 7.2251ZM8.00516 8.53047C7.87656 8.53047 7.75084 8.49234 7.64391 8.42089C7.53698 8.34944 7.45364 8.24789 7.40443 8.12908C7.35521 8.01026 7.34234 7.87952 7.36743 7.75339C7.39252 7.62726 7.45444 7.5114 7.54538 7.42046C7.63632 7.32953 7.75218 7.2676 7.87831 7.24251C8.00444 7.21742 8.13518 7.2303 8.25399 7.27951C8.37281 7.32873 8.47436 7.41207 8.54581 7.519C8.61725 7.62593 8.65539 7.75164 8.65539 7.88024C8.6553 8.05267 8.58676 8.218 8.46484 8.33992C8.34292 8.46184 8.17758 8.53038 8.00516 8.53047ZM10.0493 8.53047C9.92073 8.53047 9.79502 8.49234 9.68809 8.42089C9.58116 8.34944 9.49782 8.24789 9.4486 8.12908C9.39939 8.01026 9.38651 7.87952 9.4116 7.75339C9.43669 7.62726 9.49862 7.5114 9.58956 7.42046C9.68049 7.32953 9.79635 7.2676 9.92248 7.24251C10.0486 7.21742 10.1794 7.2303 10.2982 7.27951C10.417 7.32873 10.5185 7.41207 10.59 7.519C10.6614 7.62593 10.6996 7.75164 10.6996 7.88024C10.7005 7.96588 10.6842 8.05084 10.6519 8.13013C10.6195 8.20942 10.5717 8.28146 10.5111 8.34202C10.4506 8.40257 10.3785 8.45044 10.2992 8.4828C10.2199 8.51516 10.135 8.53137 10.0493 8.53047Z" fill="white"/>
</svg>
