<svg width="24" height="36" viewBox="0 0 24 36" fill="none" xmlns="http://www.w3.org/2000/svg">
<path d="M16.2 36L2.5 21.8V18.5H9C10.9 18.5 12.5667 17.8833 14 16.65C15.4333 15.4167 16.2667 13.7 16.5 11.5H0V8.5H16.25C15.8167 6.9 14.925 5.58333 13.575 4.55C12.225 3.51667 10.7 3 9 3H0V0H24V3H16.3C17.0667 3.66667 17.7167 4.51667 18.25 5.55C18.7833 6.58333 19.1667 7.56667 19.4 8.5H24V11.5H19.5C19.2333 14.5333 18.1083 16.9583 16.125 18.775C14.1417 20.5917 11.7667 21.5 9 21.5H6.4L20.35 36H16.2Z" fill="#FF596A"/>
</svg>
