<svg width="30" height="30" viewBox="0 0 30 30" fill="none" xmlns="http://www.w3.org/2000/svg">
<circle cx="15" cy="15" r="15" fill="url(#paint0_linear_4203_3437)"/>
<path d="M11.4 22V9.4H16.638C17.358 9.4 18.006 9.574 18.582 9.922C19.17 10.27 19.638 10.744 19.986 11.344C20.334 11.944 20.508 12.616 20.508 13.36C20.508 14.116 20.334 14.8 19.986 15.412C19.638 16.012 19.17 16.492 18.582 16.852C18.006 17.212 17.358 17.392 16.638 17.392H13.74V22H11.4ZM13.74 15.232H16.476C16.776 15.232 17.046 15.148 17.286 14.98C17.538 14.812 17.736 14.59 17.88 14.314C18.036 14.038 18.114 13.726 18.114 13.378C18.114 13.03 18.036 12.724 17.88 12.46C17.736 12.184 17.538 11.968 17.286 11.812C17.046 11.644 16.776 11.56 16.476 11.56H13.74V15.232Z" fill="white"/>
<defs>
<linearGradient id="paint0_linear_4203_3437" x1="15" y1="0" x2="15" y2="30" gradientUnits="userSpaceOnUse">
<stop offset="0.0001" stop-color="#112B64"/>
<stop offset="1" stop-color="#4B6BB0"/>
</linearGradient>
</defs>
</svg>
