<svg width="16" height="18" viewBox="0 0 16 18" fill="none" xmlns="http://www.w3.org/2000/svg">
<path d="M12.8207 12.8204L9.14818 16.4929C8.98757 16.6536 8.79686 16.7812 8.58693 16.8682C8.377 16.9552 8.15199 17 7.92474 17C7.6975 17 7.47248 16.9552 7.26255 16.8682C7.05263 16.7812 6.86191 16.6536 6.7013 16.4929L3.02796 12.8204C2.05961 11.852 1.40017 10.6182 1.13303 9.27504C0.865879 7.93187 1.00302 6.53964 1.52712 5.27441C2.05121 4.00918 2.93872 2.92777 4.07741 2.16693C5.2161 1.40609 6.55483 1 7.92431 1C9.29379 1 10.6325 1.40609 11.7712 2.16693C12.9099 2.92777 13.7974 4.00918 14.3215 5.27441C14.8456 6.53964 14.9827 7.93187 14.7156 9.27504C14.4484 10.6182 13.789 11.852 12.8207 12.8204V12.8204Z" stroke="#525F7F" stroke-width="2" stroke-linecap="round" stroke-linejoin="round"/>
<path d="M9.76082 9.75985C10.2478 9.27289 10.5214 8.61243 10.5214 7.92376C10.5214 7.2351 10.2478 6.57464 9.76082 6.08768C9.27386 5.60072 8.6134 5.32715 7.92474 5.32715C7.23607 5.32715 6.57562 5.60072 6.08866 6.08768C5.6017 6.57464 5.32812 7.2351 5.32812 7.92376C5.32812 8.61243 5.6017 9.27289 6.08866 9.75985C6.57562 10.2468 7.23607 10.5204 7.92474 10.5204C8.6134 10.5204 9.27386 10.2468 9.76082 9.75985Z" stroke="#525F7F" stroke-width="2" stroke-linecap="round" stroke-linejoin="round"/>
</svg>
