<svg width="18" height="15" viewBox="0 0 18 15" fill="none" xmlns="http://www.w3.org/2000/svg">
<path d="M1 3.66667L8.01333 8.34222C8.30548 8.53714 8.6488 8.64115 9 8.64115C9.3512 8.64115 9.69452 8.53714 9.98667 8.34222L17 3.66667M2.77778 13.4444H15.2222C15.6937 13.4444 16.1459 13.2571 16.4793 12.9237C16.8127 12.5903 17 12.1382 17 11.6667V2.77778C17 2.30628 16.8127 1.8541 16.4793 1.5207C16.1459 1.1873 15.6937 1 15.2222 1H2.77778C2.30628 1 1.8541 1.1873 1.5207 1.5207C1.1873 1.8541 1 2.30628 1 2.77778V11.6667C1 12.1382 1.1873 12.5903 1.5207 12.9237C1.8541 13.2571 2.30628 13.4444 2.77778 13.4444Z" stroke="#525F7F" stroke-width="2" stroke-linecap="round" stroke-linejoin="round"/>
</svg>
