<svg width="20" height="27" viewBox="0 0 20 27" fill="none" xmlns="http://www.w3.org/2000/svg">
<path d="M10 0.5C14.1375 0.5 17.5 3.825 17.5 7.9375C17.5 13.5125 10 21.75 10 21.75C10 21.75 2.5 13.5125 2.5 7.9375C2.5 3.825 5.8625 0.5 10 0.5ZM10 5.5C9.33696 5.5 8.70107 5.76339 8.23223 6.23223C7.76339 6.70107 7.5 7.33696 7.5 8C7.5 8.66304 7.76339 9.29893 8.23223 9.76777C8.70107 10.2366 9.33696 10.5 10 10.5C10.663 10.5 11.2989 10.2366 11.7678 9.76777C12.2366 9.29893 12.5 8.66304 12.5 8C12.5 7.33696 12.2366 6.70107 11.7678 6.23223C11.2989 5.76339 10.663 5.5 10 5.5ZM20 21.75C20 24.5125 15.525 26.75 10 26.75C4.475 26.75 0 24.5125 0 21.75C0 20.1375 1.525 18.7 3.8875 17.7875L4.6875 18.925C3.3375 19.4875 2.5 20.2625 2.5 21.125C2.5 22.85 5.8625 24.25 10 24.25C14.1375 24.25 17.5 22.85 17.5 21.125C17.5 20.2625 16.6625 19.4875 15.3125 18.925L16.1125 17.7875C18.475 18.7 20 20.1375 20 21.75Z" fill="url(#paint0_linear_8151_4419)"/>
<defs>
<linearGradient id="paint0_linear_8151_4419" x1="17.469" y1="-0.509464" x2="-0.900665" y2="20.9067" gradientUnits="userSpaceOnUse">
<stop stop-color="#4B6BB0"/>
<stop offset="0.56" stop-color="#22259F"/>
<stop offset="1" stop-color="#112B64"/>
</linearGradient>
</defs>
</svg>
