<svg width="16" height="16" viewBox="0 0 16 16" fill="none" xmlns="http://www.w3.org/2000/svg">
<path d="M6.75638 2.66489H2.64468C2.20848 2.66489 1.79015 2.83817 1.48172 3.14661C1.17328 3.45504 1 3.87338 1 4.30957V13.3553C1 13.7915 1.17328 14.2098 1.48172 14.5183C1.79015 14.8267 2.20848 15 2.64468 15H11.6904C12.1266 15 12.545 14.8267 12.8534 14.5183C13.1618 14.2098 13.3351 13.7915 13.3351 13.3553V9.24362M12.1723 1.5021C12.324 1.34502 12.5055 1.21972 12.7062 1.13353C12.9068 1.04733 13.1226 1.00196 13.341 1.00006C13.5594 0.998164 13.776 1.03978 13.9781 1.12247C14.1802 1.20517 14.3639 1.32729 14.5183 1.48172C14.6727 1.63614 14.7948 1.81977 14.8775 2.0219C14.9602 2.22402 15.0018 2.44059 14.9999 2.65897C14.998 2.87735 14.9527 3.09317 14.8665 3.29383C14.7803 3.49448 14.655 3.67596 14.4979 3.82768L7.43728 10.8883H5.1117V8.56272L12.1723 1.5021Z" stroke="#525F7F" stroke-width="2" stroke-linecap="round" stroke-linejoin="round"/>
</svg>
