<svg width="36" height="36" viewBox="0 0 36 36" fill="none" xmlns="http://www.w3.org/2000/svg">
<path d="M18.15 36C15.65 36 13.3 35.525 11.1 34.575C8.9 33.625 6.975 32.3333 5.325 30.7C3.675 29.0667 2.375 27.15 1.425 24.95C0.475 22.75 0 20.4 0 17.9C0 15.4 0.475 13.0667 1.425 10.9C2.375 8.73333 3.675 6.84167 5.325 5.225C6.975 3.60833 8.9 2.33333 11.1 1.4C13.3 0.466667 15.65 0 18.15 0C20.8167 0 23.3417 0.583333 25.725 1.75C28.1083 2.91667 30.1667 4.51667 31.9 6.55V1.25H34.9V11.65H24.45V8.65H29.7C28.2333 6.95 26.5083 5.58333 24.525 4.55C22.5417 3.51667 20.4167 3 18.15 3C13.9833 3 10.4167 4.425 7.45 7.275C4.48333 10.125 3 13.6167 3 17.75C3 21.9833 4.46667 25.5833 7.4 28.55C10.3333 31.5167 13.9167 33 18.15 33C22.3167 33 25.8333 31.5333 28.7 28.6C31.5667 25.6667 33 22.1167 33 17.95H36C36 22.95 34.2667 27.2083 30.8 30.725C27.3333 34.2417 23.1167 36 18.15 36ZM24.25 26.15L16.55 18.55V7.85H19.55V17.3L26.4 24L24.25 26.15Z" fill="#D2CB4A"/>
</svg>
