<svg width="20" height="20" viewBox="0 0 20 20" fill="none" xmlns="http://www.w3.org/2000/svg">
<path d="M10.9969 0.0300293V2.05003C15.3869 2.59003 18.4969 6.58003 17.9569 10.97C17.4969 14.61 14.6369 17.5 10.9969 17.93V19.93C16.4969 19.38 20.4969 14.5 19.9469 9.00003C19.4969 4.25003 15.7269 0.500029 10.9969 0.0300293ZM8.99687 0.0600293C7.04688 0.250029 5.18688 1.00003 3.66688 2.26003L5.09688 3.74003C6.21688 2.84003 7.56687 2.26003 8.99687 2.06003V0.0600293ZM2.25688 3.67003C1.00653 5.18737 0.237077 7.04311 0.046875 9.00003H2.04688C2.23688 7.58003 2.79688 6.23003 3.68688 5.10003L2.25688 3.67003ZM13.4969 6.50003L8.61687 11.38L6.49687 9.26003L5.43688 10.32L8.61687 13.5L14.5569 7.56003L13.4969 6.50003ZM0.056875 11C0.256875 12.96 1.02688 14.81 2.26688 16.33L3.68688 14.9C2.8038 13.7696 2.24083 12.4226 2.05687 11H0.056875ZM5.09688 16.37L3.66688 17.74C5.18165 19.0027 7.03615 19.7891 8.99687 20V18C7.57428 17.8161 6.22728 17.2531 5.09688 16.37Z" fill="#00234B"/>
</svg>
