<svg width="16" height="12" viewBox="0 0 16 12" fill="none" xmlns="http://www.w3.org/2000/svg">
<path d="M15.2 0H0.8C0.35825 0 0 0.35825 0 0.8V10.4C0 10.8418 0.35825 11.2 0.8 11.2H15.2C15.6418 11.2 16 10.8418 16 10.4V0.8C16 0.35825 15.6418 0 15.2 0ZM4.4 7.397V7.8C4.4 7.9105 4.3105 8 4.2 8H3.8C3.6895 8 3.6 7.9105 3.6 7.8V7.39275C3.31775 7.37825 3.04325 7.27975 2.81575 7.109C2.71825 7.03575 2.71325 6.88975 2.8015 6.8055L3.09525 6.52525C3.1645 6.45925 3.2675 6.45625 3.3485 6.507C3.44525 6.5675 3.555 6.6 3.669 6.6H4.37175C4.53425 6.6 4.66675 6.452 4.66675 6.27025C4.66675 6.1215 4.5765 5.9905 4.4475 5.952L3.3225 5.6145C2.85775 5.475 2.533 5.029 2.533 4.52975C2.533 3.91675 3.00925 3.41875 3.59975 3.403V3C3.59975 2.8895 3.68925 2.8 3.79975 2.8H4.19975C4.31025 2.8 4.39975 2.8895 4.39975 3V3.40725C4.682 3.42175 4.9565 3.52 5.184 3.691C5.2815 3.76425 5.2865 3.91025 5.19825 3.9945L4.9045 4.27475C4.83525 4.34075 4.73225 4.34375 4.65125 4.293C4.5545 4.23225 4.44475 4.2 4.33075 4.2H3.628C3.4655 4.2 3.333 4.348 3.333 4.52975C3.333 4.6785 3.42325 4.8095 3.55225 4.848L4.67725 5.1855C5.142 5.325 5.46675 5.771 5.46675 6.27025C5.46675 6.8835 4.9905 7.38125 4.4 7.397V7.397ZM10.4 7C10.4 7.1105 10.3105 7.2 10.2 7.2H7.4C7.2895 7.2 7.2 7.1105 7.2 7V6.6C7.2 6.4895 7.2895 6.4 7.4 6.4H10.2C10.3105 6.4 10.4 6.4895 10.4 6.6V7ZM14.4 7C14.4 7.1105 14.3105 7.2 14.2 7.2H12.2C12.0895 7.2 12 7.1105 12 7V6.6C12 6.4895 12.0895 6.4 12.2 6.4H14.2C14.3105 6.4 14.4 6.4895 14.4 6.6V7ZM14.4 4.6C14.4 4.7105 14.3105 4.8 14.2 4.8H7.4C7.2895 4.8 7.2 4.7105 7.2 4.6V4.2C7.2 4.0895 7.2895 4 7.4 4H14.2C14.3105 4 14.4 4.0895 14.4 4.2V4.6Z" fill="white"/>
</svg>
