<svg width="72" height="72" viewBox="0 0 72 72" fill="none" xmlns="http://www.w3.org/2000/svg">
<path d="M11.04 39L9.45601 40.596C9.87738 41.0137 10.4467 41.2481 11.04 41.2481C11.6333 41.2481 12.2026 41.0137 12.624 40.596L11.04 39ZM17.664 35.598C18.0881 35.1771 18.3276 34.605 18.3298 34.0075C18.3321 33.41 18.0969 32.8361 17.676 32.412C17.4676 32.202 17.2199 32.0351 16.947 31.9209C16.6741 31.8067 16.3813 31.7473 16.0855 31.7462C15.488 31.7439 14.9141 31.9791 14.49 32.4L17.661 35.595L17.664 35.598ZM7.58401 32.4C7.15798 31.9916 6.58855 31.7669 5.99843 31.7744C5.4083 31.7819 4.84474 32.0209 4.4292 32.44C4.01367 32.8591 3.77942 33.4246 3.77695 34.0148C3.77448 34.605 4.00399 35.1725 4.41601 35.595L7.58401 32.4ZM55.848 22.176C55.9988 22.4357 56.2001 22.6626 56.44 22.8433C56.6799 23.024 56.9535 23.1548 57.2448 23.2281C57.536 23.3013 57.839 23.3156 58.1358 23.2699C58.4326 23.2242 58.7173 23.1196 58.9731 22.9622C59.2288 22.8048 59.4505 22.5977 59.625 22.3533C59.7995 22.1089 59.9233 21.832 59.9891 21.5389C60.0548 21.2459 60.0613 20.9427 60.008 20.6471C59.9548 20.3516 59.8429 20.0696 59.679 19.818L55.848 22.176ZM50.679 10.821C50.4274 10.6571 50.1455 10.5452 49.8499 10.492C49.5543 10.4387 49.2511 10.4452 48.9581 10.511C48.665 10.5767 48.3881 10.7005 48.1437 10.875C47.8993 11.0495 47.6922 11.2712 47.5348 11.5269C47.3774 11.7827 47.2728 12.0674 47.2271 12.3642C47.1814 12.661 47.1957 12.964 47.2689 13.2552C47.3422 13.5465 47.473 13.8201 47.6537 14.06C47.8344 14.2999 48.0613 14.5012 48.321 14.652L50.679 10.821ZM37.389 11.274C37.9795 11.2942 38.5542 11.0813 38.989 10.6813C39.4239 10.2814 39.684 9.72642 39.7131 9.13633C39.7423 8.54623 39.5381 7.96835 39.1448 7.52748C38.7515 7.0866 38.2006 6.81812 37.611 6.78L37.389 11.274ZM36.24 6.75C21.099 6.75 8.79001 18.933 8.79001 33.999H13.29C13.29 21.453 23.55 11.25 36.24 11.25V6.75ZM8.79001 33.999V39H13.29V33.999H8.79001ZM12.63 40.599L17.664 35.598L14.49 32.4L9.45001 37.401L12.621 40.593L12.63 40.599ZM12.63 37.404L7.58401 32.4L4.41301 35.595L9.45301 40.593L12.621 37.401L12.63 37.404ZM59.682 19.824C57.4278 16.1609 54.3451 13.0782 50.682 10.824L48.324 14.655C51.3872 16.5394 53.9653 19.1166 55.851 22.179L59.682 19.824ZM37.611 6.78C37.1533 6.75779 36.6952 6.74679 36.237 6.747V11.247C36.624 11.247 37.008 11.256 37.389 11.277L37.611 6.78ZM60.939 33L62.523 31.401C62.1018 30.9842 61.5331 30.7504 60.9405 30.7504C60.3479 30.7504 59.7792 30.9842 59.358 31.401L60.939 33ZM54.3 36.399C54.0898 36.6068 53.9226 36.854 53.808 37.1264C53.6933 37.3989 53.6335 37.6912 53.6318 37.9868C53.6284 38.5837 53.8623 39.1575 54.282 39.582C54.7017 40.0065 55.2728 40.2468 55.8698 40.2502C56.4667 40.2536 57.0405 40.0197 57.465 39.6L54.3 36.399ZM64.419 39.6C64.628 39.8132 64.8773 39.9828 65.1524 40.0987C65.4275 40.2146 65.723 40.2746 66.0215 40.2752C66.3201 40.2758 66.6158 40.217 66.8914 40.1022C67.167 39.9873 67.4169 39.8188 67.6267 39.6064C67.8366 39.394 68.002 39.142 68.1134 38.865C68.2249 38.588 68.2801 38.2917 68.2758 37.9931C68.2715 37.6946 68.2079 37.3999 68.0886 37.1262C67.9693 36.8525 67.7968 36.6053 67.581 36.399L64.419 39.6ZM15.954 49.818C15.6405 49.31 15.1381 48.9473 14.5572 48.8097C13.9763 48.6722 13.3645 48.771 12.8565 49.0845C12.3485 49.398 11.9858 49.9004 11.8482 50.4813C11.7107 51.0622 11.8095 51.674 12.123 52.182L15.954 49.818ZM34.599 60.726C34.0027 60.6997 33.4203 60.9115 32.9801 61.3146C32.5398 61.7177 32.2778 62.2792 32.2515 62.8755C32.2252 63.4718 32.437 64.0542 32.8401 64.4944C33.2432 64.9347 33.8047 65.1967 34.401 65.223L34.599 60.726ZM21.339 61.29C21.8502 61.5979 22.4628 61.6901 23.042 61.5464C23.6212 61.4027 24.1196 61.0347 24.4275 60.5235C24.7354 60.0123 24.8277 59.3997 24.6839 58.8205C24.5402 58.2413 24.1722 57.7429 23.661 57.435L21.339 61.29ZM35.649 65.25C50.835 65.25 63.189 53.076 63.189 38.001H58.689C58.689 50.541 48.399 60.75 35.649 60.75V65.25ZM63.189 38.001V33H58.689V38.001H63.189ZM59.358 31.401L54.3 36.399L57.465 39.6L62.523 34.599L59.358 31.401ZM59.358 34.599L64.419 39.6L67.581 36.399L62.523 31.401L59.358 34.599ZM34.398 65.223C34.815 65.241 35.229 65.25 35.649 65.25V60.75C35.2989 60.7496 34.9488 60.7416 34.599 60.726L34.401 65.223H34.398ZM12.123 52.182C14.4266 55.908 17.5861 59.0304 21.339 61.29L23.661 57.435C20.5216 55.5456 17.8814 52.9342 15.954 49.818L12.123 52.182Z" fill="black"/>
</svg>
