<svg width="17" height="17" viewBox="0 0 17 17" fill="none" xmlns="http://www.w3.org/2000/svg">
<path d="M15.8947 12.0903L12.1182 8.42991C12.0677 8.38086 12.0039 8.34769 11.9347 8.3345C11.8656 8.32131 11.7941 8.32868 11.7291 8.3557C11.664 8.38272 11.6084 8.4282 11.5689 8.48652C11.5295 8.54484 11.508 8.61344 11.5072 8.68383L11.4885 10.3067H6.1249V10.3041H5.77847C5.27364 10.3041 4.78948 10.5046 4.43251 10.8616C4.07554 11.2186 3.875 11.7027 3.875 12.2075V12.6103C3.875 13.1151 4.07554 13.5993 4.43251 13.9563C4.78948 14.3132 5.27364 14.5138 5.77847 14.5138H6.1249V14.5119H11.4409L11.4207 16.2631C11.4201 16.3108 11.429 16.3582 11.4469 16.4024C11.4647 16.4467 11.4912 16.487 11.5247 16.521C11.5582 16.5549 11.5982 16.5819 11.6422 16.6003C11.6863 16.6187 11.7335 16.6282 11.7813 16.6282C11.8291 16.6282 11.8765 16.6187 11.9206 16.6002C11.9647 16.5817 12.0047 16.5546 12.0382 16.5204L15.9004 12.5993C15.9338 12.5654 15.9603 12.5252 15.9781 12.4811C15.996 12.4369 16.0049 12.3897 16.0044 12.3421C16.0038 12.2944 15.9939 12.2474 15.975 12.2037C15.9562 12.1599 15.9289 12.1204 15.8947 12.0872V12.0903Z" fill="white"/>
<path d="M4.13709 8.31315C4.23208 8.31336 4.3233 8.27603 4.3909 8.20929C4.45849 8.14255 4.49698 8.05181 4.49799 7.95682L4.51626 6.34458H7.98058V6.34649H10.0892C10.5941 6.34649 11.0782 6.14594 11.4352 5.78897C11.7922 5.432 11.9927 4.94785 11.9927 4.44302V4.04024C11.9927 3.53541 11.7922 3.05126 11.4352 2.69429C11.0782 2.33732 10.5941 2.13677 10.0892 2.13677H7.98172V2.13982H4.56347L4.58364 0.364641C4.58447 0.292787 4.5638 0.222326 4.52429 0.162303C4.48478 0.10228 4.42823 0.0554331 4.36191 0.0277748C4.29559 0.00011648 4.22251 -0.00709102 4.15207 0.00707737C4.08162 0.0212458 4.01701 0.0561436 3.96654 0.107292L0.104016 4.02083C0.0706012 4.05463 0.0442083 4.09471 0.0263589 4.13876C0.00850956 4.18282 -0.000443194 4.22997 1.68724e-05 4.27749C0.000476939 4.32502 0.0103407 4.37199 0.0290395 4.41569C0.0477383 4.45938 0.0749021 4.49895 0.108965 4.5321L3.88545 8.21075C3.95274 8.27642 4.04306 8.31318 4.13709 8.31315Z" fill="white"/>
</svg>
