<svg width="24" height="34" viewBox="0 0 24 34" fill="none" xmlns="http://www.w3.org/2000/svg">
<path d="M1.35 22.5844C0.85 21.6844 0.5 20.7781 0.3 19.8656C0.0999997 18.9531 0 18.0219 0 17.0719C0 13.7969 1.18125 10.9781 3.54375 8.61562C5.90625 6.25312 8.725 5.07188 12 5.07188H13.6125L10.6125 2.07187L12.075 0.609375L17.6625 6.19687L12.075 11.7844L10.575 10.2844L13.5375 7.32188H12C9.325 7.32188 7.03125 8.27812 5.11875 10.1906C3.20625 12.1031 2.25 14.3969 2.25 17.0719C2.25 17.7969 2.31875 18.4844 2.45625 19.1344C2.59375 19.7844 2.7625 20.3969 2.9625 20.9719L1.35 22.5844ZM11.85 33.4969L6.2625 27.9094L11.85 22.3219L13.3125 23.7844L10.3125 26.7844H12C14.675 26.7844 16.9688 25.8281 18.8812 23.9156C20.7937 22.0031 21.75 19.7094 21.75 17.0344C21.75 16.3094 21.6875 15.6219 21.5625 14.9719C21.4375 14.3219 21.25 13.7094 21 13.1344L22.6125 11.5219C23.1125 12.4219 23.4688 13.3281 23.6813 14.2406C23.8938 15.1531 24 16.0844 24 17.0344C24 20.3094 22.8188 23.1281 20.4563 25.4906C18.0938 27.8531 15.275 29.0344 12 29.0344H10.3125L13.3125 32.0344L11.85 33.4969Z" fill="#8C53B4"/>
</svg>
