<svg width="16" height="17" viewBox="0 0 16 17" fill="none" xmlns="http://www.w3.org/2000/svg">
<path fill-rule="evenodd" clip-rule="evenodd" d="M2.45929 0H13.5393C14.1912 0.000943121 14.8163 0.260205 15.2775 0.721011C15.7387 1.18182 15.9985 1.80661 16 2.45857V3.55036H0V2.45857C0.00150989 1.80686 0.26112 1.18228 0.722019 0.721514C1.18292 0.260749 1.80757 0.00132057 2.45929 0ZM8 5.82143C9.16816 5.82181 10.2883 6.28617 11.1141 7.11238C11.9399 7.93859 12.4038 9.05899 12.4036 10.2271C12.4036 10.2479 12.4036 10.2682 12.4036 10.2882C12.4036 10.2939 12.4036 10.2996 12.4036 10.305C12.4036 10.3279 12.4036 10.3514 12.4011 10.3736C12.3626 11.5153 11.882 12.5974 11.0607 13.3915C10.2394 14.1856 9.14168 14.6295 7.99929 14.6295C6.85689 14.6295 5.75919 14.1856 4.93789 13.3915C4.1166 12.5974 3.63599 11.5153 3.5975 10.3736C3.5975 10.3507 3.595 10.3279 3.595 10.305C3.595 10.2996 3.595 10.2939 3.595 10.2882C3.595 10.2682 3.595 10.2471 3.595 10.2271C3.59491 9.64861 3.70878 9.07573 3.93011 8.5412C4.15144 8.00668 4.47589 7.52099 4.88494 7.11188C5.29399 6.70276 5.77963 6.37822 6.31412 6.15681C6.8486 5.93539 7.42147 5.82143 8 5.82143ZM11.54 11.4893C11.3684 11.5891 11.1893 11.6754 11.0043 11.7475C10.6036 11.9016 10.1889 12.0163 9.76607 12.09C9.69304 12.48 9.58449 12.8626 9.44179 13.2329C9.36522 13.4307 9.27228 13.6219 9.16393 13.8043C9.71004 13.6257 10.2081 13.3246 10.62 12.9241C11.032 12.5235 11.3469 12.0341 11.5407 11.4932L11.54 11.4893ZM9.08536 12.1871C8.36312 12.2619 7.63509 12.2619 6.91286 12.1871C6.97378 12.4619 7.05556 12.7316 7.1575 12.9939C7.39929 13.6061 7.69929 13.9846 7.99929 13.9846C8.29929 13.9846 8.59822 13.6061 8.84107 12.9939C8.94268 12.7315 9.02434 12.4618 9.08536 12.1871ZM6.23286 12.0896C5.81003 12.0157 5.39536 11.901 4.99464 11.7471C4.80973 11.6749 4.63063 11.5886 4.45893 11.4889C4.65275 12.0298 4.96767 12.5192 5.37961 12.9198C5.79154 13.3203 6.2896 13.6214 6.83571 13.8C6.7275 13.6181 6.63456 13.4276 6.55786 13.2304C6.41517 12.8601 6.30662 12.4775 6.23357 12.0875L6.23286 12.0896ZM4.24286 10.3396C4.27 10.6279 4.64321 10.9139 5.23214 11.1471C5.52308 11.2597 5.82278 11.3481 6.12821 11.4114C6.08318 11.018 6.06076 10.6224 6.06107 10.2264C6.06107 10.0093 6.06786 9.79536 6.08036 9.58679C5.96929 9.56429 5.86071 9.53964 5.75536 9.51357C5.23964 9.38536 4.79107 9.21286 4.44357 9.00714C4.30928 9.39987 4.24086 9.81209 4.24107 10.2271C4.24107 10.2645 4.24179 10.302 4.24321 10.3396H4.24286ZM6.79286 11.5236C7.59388 11.6221 8.40397 11.6221 9.205 11.5236C9.26276 11.0939 9.2914 10.6607 9.29072 10.2271C9.29072 10.0454 9.28643 9.86679 9.27679 9.69143C8.85276 9.7441 8.42586 9.77035 7.99857 9.77C7.57127 9.7707 7.14435 9.74446 6.72036 9.69143C6.71071 9.86607 6.70607 10.045 6.70607 10.2271C6.70539 10.6607 6.73402 11.0939 6.79179 11.5236H6.79286ZM9.87036 11.4118C10.1758 11.3483 10.4755 11.2599 10.7664 11.1475C11.355 10.9146 11.7279 10.6286 11.7557 10.3404C11.7557 10.3025 11.7579 10.265 11.7579 10.2275C11.7582 9.81256 11.6898 9.40042 11.5554 9.00786C11.2068 9.21321 10.7593 9.38607 10.2439 9.51429C10.1382 9.54071 10.0298 9.56452 9.91857 9.58571C9.93143 9.795 9.93786 10.0083 9.93786 10.2257C9.93829 10.6215 9.91599 11.0171 9.87107 11.4104L9.87036 11.4118ZM4.70643 8.41393C5.00321 8.6025 5.41536 8.765 5.90893 8.88714C5.98464 8.90607 6.06179 8.92286 6.14071 8.94036C6.22357 8.28643 6.36821 7.69929 6.55679 7.22179C6.63369 7.024 6.72674 6.83288 6.835 6.65036C5.92814 6.94717 5.16751 7.57673 4.70643 8.41214V8.41393ZM6.77786 9.04786C7.18322 9.09902 7.59142 9.12431 8 9.12357C8.40834 9.12432 8.81631 9.09903 9.22143 9.04786C9.14643 8.43893 9.01464 7.89607 8.84179 7.45929C8.6 6.8475 8.3 6.46821 8 6.46821C7.7 6.46821 7.40107 6.84679 7.15821 7.45929C6.98536 7.89607 6.85393 8.43893 6.77821 9.04786H6.77786ZM9.8575 8.94071C9.93679 8.92381 10.0139 8.90607 10.0889 8.8875C10.5829 8.765 10.9946 8.60179 11.2918 8.41393C10.8307 7.57852 10.0701 6.94896 9.16321 6.65214C9.27157 6.83456 9.36451 7.0257 9.44107 7.22357C9.63 7.70107 9.77464 8.28821 9.85714 8.94214L9.8575 8.94071ZM15.9979 4.19679V13.6668C15.9963 14.3184 15.7367 14.9428 15.2758 15.4035C14.815 15.8642 14.1905 16.1236 13.5389 16.125H2.45893C1.80734 16.1236 1.18283 15.8642 0.722018 15.4035C0.261206 14.9428 0.00160384 14.3184 0 13.6668L0 4.19679H15.9979ZM2.41857 1.37536C2.54806 1.37529 2.67467 1.41362 2.78237 1.48551C2.89007 1.5574 2.97403 1.65962 3.02364 1.77923C3.07324 1.89885 3.08626 2.03048 3.06104 2.1575C3.03582 2.28451 2.9735 2.40119 2.88196 2.49278C2.79042 2.58437 2.67377 2.64675 2.54677 2.67204C2.41978 2.69733 2.28813 2.68438 2.16849 2.63485C2.04885 2.58531 1.94659 2.5014 1.87464 2.39374C1.80269 2.28607 1.76429 2.15949 1.76429 2.03C1.76438 1.8565 1.83334 1.69014 1.95603 1.56745C2.07871 1.44477 2.24507 1.37581 2.41857 1.37571V1.37536ZM5.26036 1.37536C5.38989 1.37507 5.5166 1.41323 5.62445 1.48499C5.73229 1.55675 5.81642 1.65889 5.86619 1.77849C5.91595 1.89808 5.92912 2.02975 5.90402 2.15684C5.87893 2.28392 5.81669 2.4007 5.72519 2.49239C5.6337 2.58409 5.51705 2.64658 5.39003 2.67196C5.263 2.69733 5.1313 2.68445 5.0116 2.63495C4.89189 2.58544 4.78957 2.50153 4.71757 2.39385C4.64557 2.28616 4.60714 2.15954 4.60714 2.03C4.60714 1.85666 4.67593 1.6904 4.7984 1.56773C4.92087 1.44506 5.08702 1.376 5.26036 1.37571V1.37536Z" fill="white"/>
</svg>
