<svg width="18" height="18" viewBox="0 0 18 18" fill="none" xmlns="http://www.w3.org/2000/svg">
<path d="M17.7793 0.217449C17.6781 0.116704 17.5502 0.046952 17.4107 0.0163941C17.2712 -0.0141638 17.1259 -0.00425713 16.9918 0.0449493L0.491827 6.04495C0.349528 6.09892 0.227017 6.19491 0.140565 6.32016C0.0541134 6.44542 0.0078125 6.59401 0.0078125 6.7462C0.0078125 6.89839 0.0541134 7.04698 0.140565 7.17223C0.227017 7.29749 0.349528 7.39347 0.491827 7.44745L7.69183 10.3274L10.5718 17.5274C10.6259 17.6635 10.7187 17.7807 10.8386 17.8647C10.9586 17.9487 11.1005 17.9957 11.2468 17.9999C11.3984 17.9968 11.5455 17.9479 11.6686 17.8595C11.7918 17.7711 11.8853 17.6475 11.9368 17.5049L17.9368 1.00495C17.9879 0.872257 18.0003 0.727772 17.9724 0.588342C17.9445 0.448912 17.8775 0.320282 17.7793 0.217449ZM11.2468 15.1499L9.15433 9.89995L12.7468 6.30745L11.6893 5.24995L8.06683 8.87245L2.84683 6.74995L15.9943 2.00245L11.2468 15.1499Z" fill="#00234B"/>
</svg>
