<svg width="16" height="16" viewBox="0 0 16 16" fill="none" xmlns="http://www.w3.org/2000/svg">
<path fill-rule="evenodd" clip-rule="evenodd" d="M4.6643 10.566L0.965326 8.90359C0.678269 8.77473 0.434497 8.56577 0.263267 8.30179C0.0920369 8.03781 0.00062519 7.73002 3.19544e-06 7.41537C-0.000618799 7.10072 0.0895753 6.79257 0.25976 6.52792C0.429945 6.26326 0.67289 6.05334 0.959435 5.92335L13.6897 0.145858C13.9927 0.00854708 14.3303 -0.0331233 14.6575 0.0264064C14.9847 0.0859361 15.286 0.243835 15.5212 0.479037C15.7563 0.714238 15.9142 1.01556 15.9736 1.34279C16.0331 1.67003 15.9914 2.00762 15.854 2.31053C14.2792 5.77938 11.5427 11.8065 10.0751 15.0393C9.94507 15.3259 9.73515 15.5688 9.4705 15.739C9.20584 15.9092 8.89769 15.9994 8.58304 15.9988C8.26839 15.9982 7.9606 15.9067 7.69662 15.7355C7.43264 15.5643 7.22368 15.3205 7.09482 15.0335L5.43459 11.3345L10.5246 6.24479C10.5753 6.19416 10.6155 6.13406 10.6429 6.0679C10.6703 6.00175 10.6844 5.93084 10.6845 5.85923C10.6845 5.78761 10.6704 5.7167 10.643 5.65053C10.6156 5.58436 10.5755 5.52424 10.5248 5.47359C10.4742 5.42294 10.4141 5.38275 10.3479 5.35533C10.2818 5.32791 10.2109 5.31379 10.1393 5.31377C10.0676 5.31376 9.99673 5.32784 9.93057 5.35523C9.8644 5.38262 9.80427 5.42278 9.75362 5.4734L4.6643 10.566Z" fill="white"/>
</svg>
