<svg width="16" height="17" viewBox="0 0 16 17" fill="none" xmlns="http://www.w3.org/2000/svg">
<path d="M11.8728 2.14C11.8728 1.64 11.8728 1.14 11.8728 0.66C11.8728 0.573328 11.8557 0.487504 11.8226 0.407429C11.7894 0.327354 11.7408 0.254596 11.6795 0.19331C11.6182 0.132023 11.5455 0.0834076 11.4654 0.0502395C11.3853 0.0170714 11.2995 4.55854e-09 11.2128 4.55854e-09H4.78281C4.61214 -2.01945e-05 4.44831 0.0670874 4.32669 0.186832C4.20508 0.306576 4.13544 0.469348 4.13281 0.64V15.64C4.13281 15.64 4.13281 15.71 4.13281 15.74V15.79C4.1568 15.9073 4.21533 16.0147 4.30087 16.0985C4.38641 16.1822 4.49505 16.2385 4.61281 16.26H4.74281H11.1928C11.3602 16.2629 11.5223 16.2011 11.6452 16.0874C11.7682 15.9738 11.8425 15.8171 11.8528 15.65C11.8528 15.16 11.8528 14.65 11.8528 14.18L11.8728 2.14ZM6.55281 3.42C6.80166 3.12236 7.13607 2.9085 7.51064 2.80748C7.88522 2.70645 8.28181 2.72314 8.64657 2.85528C9.01133 2.98743 9.32659 3.22862 9.54955 3.54612C9.7725 3.86362 9.89235 4.24204 9.89281 4.63C9.89871 5.04551 9.7675 5.45138 9.51949 5.7848C9.27149 6.11823 8.9205 6.36063 8.52086 6.47449C8.12121 6.58835 7.69518 6.56732 7.30869 6.41466C6.92219 6.26201 6.59678 5.98623 6.38281 5.63C6.17778 5.2897 6.08397 4.89394 6.11444 4.49782C6.14491 4.1017 6.29815 3.72494 6.55281 3.42Z" fill="white"/>
<path d="M15.9972 12.4722V3.00218C15.9967 2.8589 15.9482 2.71993 15.8593 2.60752C15.7705 2.49511 15.6465 2.41576 15.5072 2.38218C15.2876 2.36219 15.0667 2.36219 14.8472 2.38218H12.6172V4.00218C13.0167 4.0104 13.4013 4.15508 13.7072 4.41218C13.9629 4.63288 14.1456 4.92593 14.2313 5.25265C14.317 5.57937 14.3016 5.92439 14.1872 6.24218C14.0602 6.55469 13.8431 6.82236 13.5635 7.01112C13.2839 7.19988 12.9545 7.3012 12.6172 7.30218V13.8822H15.2372C15.3332 13.8975 15.4311 13.8975 15.5272 13.8822C15.6611 13.8453 15.7794 13.7658 15.8642 13.6558C15.949 13.5457 15.9957 13.4111 15.9972 13.2722V12.5022V12.4722Z" fill="white"/>
<path d="M3.38002 7.48075C2.98161 7.47615 2.59684 7.33495 2.29002 7.08075C2.03349 6.85845 1.85032 6.56365 1.76464 6.2352C1.67895 5.90674 1.69478 5.56003 1.81002 5.24075C1.9307 4.92075 2.14509 4.64459 2.42519 4.44835C2.70528 4.2521 3.03805 4.1449 3.38002 4.14075V2.37075H0.760023C0.663951 2.35558 0.566095 2.35558 0.470023 2.37075C0.333644 2.41005 0.213876 2.4929 0.129009 2.60666C0.0441422 2.72042 -0.00115951 2.85883 2.25589e-05 3.00075V13.2307C0.000509372 13.374 0.0490603 13.513 0.137901 13.6254C0.226742 13.7378 0.350734 13.8172 0.490023 13.8507C0.709316 13.8757 0.93073 13.8757 1.15002 13.8507H3.38002V7.48075Z" fill="white"/>
</svg>
