<svg width="16" height="18" viewBox="0 0 16 18" fill="none" xmlns="http://www.w3.org/2000/svg">
<path d="M8.00188 6.59375C7.56738 6.59367 7.14261 6.72245 6.7813 6.96379C6.41998 7.20513 6.13835 7.5482 5.97202 7.94961C5.80569 8.35101 5.76213 8.79273 5.84685 9.21889C5.93157 9.64506 6.14077 10.0365 6.44798 10.3438C6.75519 10.6511 7.14663 10.8603 7.57278 10.9451C7.99892 11.0299 8.44065 10.9864 8.84209 10.8202C9.24352 10.6539 9.58664 10.3723 9.82804 10.0111C10.0694 9.6498 10.1983 9.22506 10.1983 8.79056C10.1977 8.20818 9.96609 7.64983 9.55433 7.23799C9.14256 6.82616 8.58425 6.59447 8.00188 6.59375Z" fill="white"/>
<path d="M8.00188 3.40257e-08C7.56738 -7.64227e-05 7.14261 0.128699 6.7813 0.37004C6.41998 0.611382 6.13835 0.954449 5.97202 1.35586C5.80569 1.75726 5.76213 2.19898 5.84685 2.62514C5.93157 3.05131 6.14077 3.44278 6.44798 3.75004C6.75519 4.05731 7.14663 4.26657 7.57278 4.35137C7.99892 4.43617 8.44065 4.39268 8.84209 4.22642C9.24352 4.06017 9.58664 3.7786 9.82804 3.41732C10.0694 3.05605 10.1983 2.63131 10.1983 2.19681C10.1977 1.61443 9.96609 1.05608 9.55433 0.644244C9.14256 0.232407 8.58425 0.000716289 8.00188 3.40257e-08Z" fill="white"/>
<path d="M8.00188 13.1797C7.56738 13.1796 7.14261 13.3084 6.7813 13.5497C6.41998 13.7911 6.13835 14.1341 5.97202 14.5355C5.80569 14.937 5.76213 15.3787 5.84685 15.8048C5.93157 16.231 6.14077 16.6225 6.44798 16.9297C6.75519 17.237 7.14663 17.4463 7.57278 17.5311C7.99892 17.6159 8.44065 17.5724 8.84209 17.4061C9.24352 17.2399 9.58664 16.9583 9.82804 16.597C10.0694 16.2357 10.1983 15.811 10.1983 15.3765C10.1977 14.7941 9.96609 14.2358 9.55433 13.8239C9.14256 13.4121 8.58425 13.1804 8.00188 13.1797Z" fill="white"/>
<path d="M14.1445 11.1975C14.0563 11.157 13.9556 11.1531 13.8645 11.1868C13.7735 11.2204 13.6994 11.2887 13.6586 11.3768C13.036 12.7304 11.9497 13.8165 10.5959 14.4388C10.5078 14.4793 10.4393 14.5531 10.4056 14.6441C10.3719 14.7351 10.3757 14.8357 10.4162 14.9239C10.4567 15.0121 10.5306 15.0805 10.6215 15.1142C10.7125 15.148 10.8132 15.1441 10.9013 15.1036C12.414 14.4083 13.6281 13.1949 14.3243 11.6826C14.3647 11.5944 14.3685 11.4938 14.3348 11.4029C14.3011 11.3119 14.2327 11.238 14.1445 11.1975Z" fill="white" stroke="white" stroke-width="0.3" stroke-linejoin="round"/>
<path d="M10.5944 3.13447C11.9482 3.75647 13.0346 4.84248 13.6571 6.196C13.6864 6.25966 13.7334 6.31355 13.7925 6.35131C13.8516 6.38906 13.9202 6.40908 13.9903 6.409C14.0436 6.40918 14.0964 6.39784 14.1449 6.37575C14.2331 6.33513 14.3015 6.26119 14.3352 6.17017C14.3689 6.07914 14.3651 5.97847 14.3247 5.89024C13.6283 4.37843 12.4142 3.16555 10.9017 2.47075C10.8578 2.448 10.8098 2.43437 10.7605 2.4307C10.7111 2.42703 10.6616 2.43338 10.6148 2.44938C10.568 2.46538 10.525 2.49069 10.4882 2.52379C10.4515 2.55688 10.4218 2.59708 10.4011 2.64195C10.3803 2.68682 10.3688 2.73543 10.3673 2.78486C10.3659 2.83428 10.3744 2.88349 10.3925 2.92952C10.4106 2.97555 10.4378 3.01743 10.4725 3.05266C10.5072 3.08788 10.5487 3.11571 10.5944 3.13447Z" fill="white" stroke="white" stroke-width="0.3" stroke-linejoin="round"/>
<path d="M5.10529 2.31321C3.5122 3.02604 2.2374 4.30056 1.52422 5.8935C1.4845 5.98213 1.4816 6.08291 1.51618 6.17367C1.55076 6.26443 1.61998 6.33774 1.70861 6.37747C1.79724 6.4172 1.89802 6.42009 1.98878 6.38551C2.07955 6.35093 2.15285 6.28171 2.19258 6.19308C2.83208 4.76417 3.9755 3.62089 5.40448 2.98156C5.44837 2.96192 5.48796 2.93382 5.52098 2.89888C5.55401 2.86393 5.57983 2.82283 5.59697 2.7779C5.61411 2.73298 5.62223 2.68512 5.62088 2.63706C5.61952 2.589 5.60871 2.54167 5.58907 2.49779C5.56942 2.4539 5.54132 2.41432 5.50638 2.38129C5.47144 2.34826 5.43033 2.32244 5.38541 2.3053C5.34048 2.28816 5.29262 2.28004 5.24456 2.2814C5.1965 2.28275 5.14917 2.29356 5.10529 2.31321Z" fill="white" stroke="white" stroke-width="0.3" stroke-linejoin="round"/>
<path d="M5.40985 14.4392C4.05622 13.8168 2.96988 12.7307 2.34715 11.3773C2.30661 11.289 2.23268 11.2205 2.14162 11.1868C2.05057 11.1531 1.94986 11.157 1.86164 11.1975C1.77342 11.2381 1.70492 11.312 1.67121 11.403C1.6375 11.4941 1.64134 11.5948 1.68189 11.683C2.37812 13.1955 3.59237 14.4091 5.10524 15.1044C5.15319 15.1263 5.20525 15.1376 5.25793 15.1377C5.3415 15.138 5.42267 15.1097 5.48794 15.0575C5.5532 15.0053 5.59864 14.9323 5.61671 14.8507C5.63477 14.7691 5.62437 14.6838 5.58723 14.609C5.55009 14.5341 5.48845 14.4742 5.41255 14.4392H5.40985Z" fill="white" stroke="white" stroke-width="0.3" stroke-linejoin="round"/>
<path d="M15.2255 6.82812H12.8512C12.4243 6.82812 12.0781 7.17426 12.0781 7.60124V9.97547C12.0781 10.4025 12.4243 10.7486 12.8512 10.7486H15.2255C15.6525 10.7486 15.9986 10.4025 15.9986 9.97547V7.60124C15.9986 7.17426 15.6525 6.82812 15.2255 6.82812Z" fill="white"/>
<path d="M3.14735 6.82812H0.773115C0.346135 6.82812 0 7.17426 0 7.60124V9.97547C0 10.4025 0.346135 10.7486 0.773115 10.7486H3.14735C3.57433 10.7486 3.92046 10.4025 3.92046 9.97547V7.60124C3.92046 7.17426 3.57433 6.82812 3.14735 6.82812Z" fill="white"/>
</svg>
