<svg width="16" height="21" viewBox="0 0 16 21" fill="none" xmlns="http://www.w3.org/2000/svg">
<path d="M14.8449 3.48438H11.2278V3.90283C11.2278 5.52191 9.85659 6.83842 8.17083 6.83842H7.82733C6.14157 6.83842 4.77034 5.52191 4.77034 3.90283V3.48438H1.14959C0.512717 3.48438 0 3.97824 0 4.58798V19.3786C0 19.9861 0.515017 20.4822 1.15189 20.4822H14.8504C15.4868 20.4822 16 19.9884 16 19.3786V4.58982C16 3.97824 15.4813 3.48438 14.8449 3.48438Z" fill="white"/>
<path d="M7.829 6.0004H8.1725C9.39521 6.0004 10.3921 5.06234 10.3921 3.90217V0.418911C10.3918 0.307921 10.3475 0.20158 10.269 0.123098C10.1906 0.0446156 10.0842 0.000363706 9.97322 0L6.02829 0C5.91726 0.000242949 5.81085 0.0444561 5.73234 0.122964C5.65383 0.201473 5.60962 0.307883 5.60938 0.418911V3.90217C5.60938 5.06234 6.60584 6.0004 7.82854 6.0004H7.829Z" fill="white"/>
<path d="M9.34883 17.5465L8.34316 19.04C8.14222 19.3274 7.82631 19.3274 7.62536 19.04L6.64821 17.5465C6.44726 17.2591 6.36127 16.7132 6.44726 16.3399C6.64821 15.3921 7.05056 13.6397 7.39544 12.1172H8.60205L9.54977 16.3399C9.63622 16.7132 9.54977 17.2595 9.34883 17.5465Z" fill="#294583"/>
<path d="M11.8096 8.6285L11.3599 7.27888C11.3493 7.24734 11.3319 7.21853 11.3089 7.19453C11.2858 7.17052 11.2578 7.15191 11.2267 7.14004C11.1956 7.12817 11.1623 7.12334 11.1291 7.12587C11.0959 7.12841 11.0637 7.13827 11.0348 7.15473L7.99666 8.89061L4.95853 7.15473C4.92963 7.13818 4.89742 7.12826 4.86423 7.12568C4.83103 7.1231 4.79767 7.12792 4.76657 7.1398C4.73546 7.15168 4.70738 7.17032 4.68435 7.19437C4.66133 7.21842 4.64393 7.24729 4.63342 7.27888L4.18324 8.62896C4.1715 8.66466 4.1688 8.70271 4.17539 8.73971C4.18197 8.7767 4.19762 8.81149 4.22095 8.84095L6.01937 11.0905C6.03919 11.1151 6.06396 11.1353 6.09209 11.1497C6.12021 11.1641 6.15105 11.1724 6.18261 11.1742H6.19549C6.22496 11.1742 6.25415 11.1684 6.28138 11.1571C6.3086 11.1458 6.33333 11.1293 6.35413 11.1084L7.99666 9.46816L9.63736 11.1089C9.65825 11.1298 9.68305 11.1463 9.71035 11.1576C9.73766 11.1689 9.76692 11.1747 9.79646 11.1746H9.80888C9.84045 11.173 9.87131 11.1646 9.89944 11.1502C9.92757 11.1358 9.95234 11.1156 9.97212 11.0909L11.7719 8.84095C11.7955 8.81161 11.8113 8.77682 11.8179 8.73977C11.8244 8.70273 11.8216 8.66463 11.8096 8.62896V8.6285Z" fill="#294583"/>
<path d="M8.9506 11.1467L7.99874 10.1953L7.04688 11.1467L7.39543 11.7155H8.60204L8.9506 11.1467Z" fill="#294583"/>
</svg>
