<svg width="48" height="48" viewBox="0 0 48 48" fill="none" xmlns="http://www.w3.org/2000/svg">
<path d="M17.3 45L13.5 38.5L5.95 36.95L6.8 29.6L2 24L6.8 18.45L5.95 11.1L13.5 9.55L17.3 3L24 6.1L30.7 3L34.55 9.55L42.05 11.1L41.2 18.45L46 24L41.2 29.6L42.05 36.95L34.55 38.5L30.7 45L24 41.9L17.3 45Z" fill="#DD2025"/>
<path d="M25.9219 14.9375L25.582 26.8789H22.9688L22.6289 14.9375H25.9219ZM22.5352 30.5586C22.5352 30.0977 22.6914 29.7109 23.0039 29.3984C23.3242 29.0781 23.7539 28.918 24.293 28.918C24.832 28.918 25.2578 29.0781 25.5703 29.3984C25.8906 29.7109 26.0508 30.0977 26.0508 30.5586C26.0508 31.0117 25.8906 31.3945 25.5703 31.707C25.2578 32.0195 24.832 32.1758 24.293 32.1758C23.7539 32.1758 23.3242 32.0195 23.0039 31.707C22.6914 31.3945 22.5352 31.0117 22.5352 30.5586Z" fill="white"/>
</svg>
