<svg width="24" height="24" viewBox="0 0 24 24" fill="none" xmlns="http://www.w3.org/2000/svg">
<path d="M8.9 22.75L7 19.5L3.225 18.725L3.65 15.05L1.25 12.25L3.65 9.475L3.225 5.8L7 5.025L8.9 1.75L12.25 3.3L15.6 1.75L17.525 5.025L21.275 5.8L20.85 9.475L23.25 12.25L20.85 15.05L21.275 18.725L17.525 19.5L15.6 22.75L12.25 21.2L8.9 22.75Z" fill="#EFDA1A"/>
<path d="M10.5902 15.675L10.7688 15.8572L10.9474 15.675L17.1786 9.31539L17.35 9.14043L17.1786 8.96546L16.5511 8.32504L16.3725 8.14279L16.1939 8.32504L10.7688 13.8619L8.30607 11.3484L8.1275 11.1662L7.94893 11.3484L7.32143 11.9889L7.15 12.1638L7.32143 12.3388L10.5902 15.675Z" fill="white" stroke="white" stroke-width="0.5"/>
</svg>
