<svg width="24" height="24" viewBox="0 0 24 24" fill="none" xmlns="http://www.w3.org/2000/svg">
<path d="M8.9 22.75L7 19.5L3.225 18.725L3.65 15.05L1.25 12.25L3.65 9.475L3.225 5.8L7 5.025L8.9 1.75L12.25 3.3L15.6 1.75L17.525 5.025L21.275 5.8L20.85 9.475L23.25 12.25L20.85 15.05L21.275 18.725L17.525 19.5L15.6 22.75L12.25 21.2L8.9 22.75Z" fill="#B1B1B1"/>
<path d="M12.9609 8.46875L12.791 14.4395H11.4844L11.3145 8.46875H12.9609ZM11.2676 16.2793C11.2676 16.0488 11.3457 15.8555 11.502 15.6992C11.6621 15.5391 11.877 15.459 12.1465 15.459C12.416 15.459 12.6289 15.5391 12.7852 15.6992C12.9453 15.8555 13.0254 16.0488 13.0254 16.2793C13.0254 16.5059 12.9453 16.6973 12.7852 16.8535C12.6289 17.0098 12.416 17.0879 12.1465 17.0879C11.877 17.0879 11.6621 17.0098 11.502 16.8535C11.3457 16.6973 11.2676 16.5059 11.2676 16.2793Z" fill="white"/>
</svg>
