<svg width="48" height="48" viewBox="0 0 48 48" fill="none" xmlns="http://www.w3.org/2000/svg">
<path d="M17.3 45L13.5 38.5L5.95 36.95L6.8 29.6L2 24L6.8 18.45L5.95 11.1L13.5 9.55L17.3 3L24 6.1L30.7 3L34.55 9.55L42.05 11.1L41.2 18.45L46 24L41.2 29.6L42.05 36.95L34.55 38.5L30.7 45L24 41.9L17.3 45Z" fill="#DD2025"/>
<path d="M17.567 31.5705L17.7437 31.7473L17.9205 31.5705L24 25.4911L30.0795 31.5705L30.2562 31.7473L30.433 31.5705L31.5705 30.433L31.7473 30.2562L31.5705 30.0795L25.4911 24L31.5705 17.9205L31.7473 17.7437L31.5705 17.567L30.433 16.4295L30.2562 16.2527L30.0795 16.4295L24 22.5089L17.9205 16.4295L17.7437 16.2527L17.567 16.4295L16.4295 17.567L16.2527 17.7437L16.4295 17.9205L22.5089 24L16.4295 30.0795L16.2527 30.2562L16.4295 30.433L17.567 31.5705Z" fill="white" stroke="white" stroke-width="0.5"/>
</svg>
