<svg width="48" height="48" viewBox="0 0 48 48" fill="none" xmlns="http://www.w3.org/2000/svg">
<path d="M17.8 45.5L14 39L6.45 37.45L7.3 30.1L2.5 24.5L7.3 18.95L6.45 11.6L14 10.05L17.8 3.5L24.5 6.6L31.2 3.5L35.05 10.05L42.55 11.6L41.7 18.95L46.5 24.5L41.7 30.1L42.55 37.45L35.05 39L31.2 45.5L24.5 42.4L17.8 45.5Z" fill="#155EEF"/>
<path d="M21.3591 31.175L21.5376 31.3572L21.7162 31.175L34.1786 18.4558L34.35 18.2809L34.1786 18.1059L32.9236 16.825L32.745 16.6428L32.5664 16.825L21.5376 28.0811L16.4336 22.8718L16.255 22.6896L16.0764 22.8718L14.8214 24.1527L14.65 24.3277L14.8214 24.5026L21.3591 31.175Z" fill="white" stroke="white" stroke-width="0.5"/>
</svg>
