<svg width="40" height="40" viewBox="0 0 40 40" fill="none" xmlns="http://www.w3.org/2000/svg">
<path d="M34 40H6C2.7 40 0 37.3 0 34V6C0 2.7 2.7 0 6 0H34C37.3 0 40 2.7 40 6V34C40 37.3 37.3 40 34 40Z" fill="#95D283"/>
<path d="M27 19.6111V17.5111C27 16.2043 27 15.5509 26.7457 15.0518C26.522 14.6128 26.165 14.2558 25.726 14.0321C25.2269 13.7778 24.5735 13.7778 23.2667 13.7778H16.7333C15.4265 13.7778 14.7731 13.7778 14.274 14.0321C13.835 14.2558 13.478 14.6128 13.2543 15.0518C13 15.5509 13 16.2043 13 17.5111V24.0445C13 25.3512 13 26.0046 13.2543 26.5038C13.478 26.9428 13.835 27.2998 14.274 27.5235C14.7731 27.7778 15.4265 27.7778 16.7333 27.7778H20.3889M27 18.4445H13M23.1111 12.2222V15.3333M16.8889 12.2222V15.3333M24.6667 27V22.3333M22.3333 24.6667H27" stroke="white" stroke-width="1.2" stroke-linecap="round" stroke-linejoin="round"/>
</svg>
