<svg width="40" height="41" viewBox="0 0 40 41" fill="none" xmlns="http://www.w3.org/2000/svg">
<path d="M34 40.8984H6C2.7 40.8984 0 38.1984 0 34.8984V6.89844C0 3.59844 2.7 0.898438 6 0.898438H34C37.3 0.898438 40 3.59844 40 6.89844V34.8984C40 38.1984 37.3 40.8984 34 40.8984Z" fill="#F79009"/>
<path fill-rule="evenodd" clip-rule="evenodd" d="M20 23.8984C18.3 23.8984 17 22.4984 17 20.8984C17 19.1984 18.3 17.8984 20 17.8984C21.6 17.8984 23 19.1984 23 20.8984C23 22.4984 21.6 23.8984 20 23.8984ZM20 19.3984C19.1 19.3984 18.5 19.9984 18.5 20.8984C18.5 21.6984 19.1 22.3984 20 22.3984C20.8 22.3984 21.5 21.6984 21.5 20.8984C21.5 19.9984 20.8 19.3984 20 19.3984ZM23.7 29.8984C23.3 29.8984 23 29.4984 23 29.0984C23 27.4984 21.6 26.0984 20 26.0984C18.3 26.0984 17 27.4984 17 29.0984C17 29.4984 16.6 29.8984 16.2 29.8984C15.8 29.8984 15.5 29.4984 15.5 29.0984C15.5 26.5984 17.5 24.5984 20 24.5984C22.5 24.5984 24.5 26.5984 24.5 29.0984C24.5 29.4984 24.1 29.8984 23.7 29.8984ZM24.5 17.8984C22.8 17.8984 21.5 16.4984 21.5 14.8984C21.5 13.1984 22.8 11.8984 24.5 11.8984C26.1 11.8984 27.5 13.1984 27.5 14.8984C27.5 16.4984 26.1 17.8984 24.5 17.8984ZM24.5 13.3984C23.6 13.3984 23 13.9984 23 14.8984C23 15.6984 23.6 16.3984 24.5 16.3984C25.3 16.3984 26 15.6984 26 14.8984C26 13.9984 25.3 13.3984 24.5 13.3984ZM28.2 23.8984C27.8 23.8984 27.5 23.4984 27.5 23.0984C27.5 21.4984 26.1 20.0984 24.5 20.0984C24.1 20.0984 23.7 19.7984 23.7 19.3984C23.7 18.9984 24.1 18.5984 24.5 18.5984C27 18.5984 29 20.5984 29 23.0984C29 23.4984 28.6 23.8984 28.2 23.8984ZM15.5 17.8984C13.8 17.8984 12.5 16.4984 12.5 14.8984C12.5 13.1984 13.8 11.8984 15.5 11.8984C17.1 11.8984 18.5 13.1984 18.5 14.8984C18.5 16.4984 17.1 17.8984 15.5 17.8984ZM15.5 13.3984C14.6 13.3984 14 13.9984 14 14.8984C14 15.6984 14.6 16.3984 15.5 16.3984C16.3 16.3984 17 15.6984 17 14.8984C17 13.9984 16.3 13.3984 15.5 13.3984ZM11.7 23.8984C11.3 23.8984 11 23.4984 11 23.0984C11 20.5984 13 18.5984 15.5 18.5984C15.9 18.5984 16.2 18.9984 16.2 19.3984C16.2 19.7984 15.9 20.0984 15.5 20.0984C13.8 20.0984 12.5 21.4984 12.5 23.0984C12.5 23.4984 12.1 23.8984 11.7 23.8984Z" fill="white"/>
</svg>
