<svg width="40" height="40" viewBox="0 0 40 40" fill="none" xmlns="http://www.w3.org/2000/svg">
<path d="M34 40H6C2.7 40 0 37.3 0 34V6C0 2.7 2.7 0 6 0H34C37.3 0 40 2.7 40 6V34C40 37.3 37.3 40 34 40Z" fill="#57C8F4"/>
<path d="M16.5004 19.9985L18.8338 22.3318L23.5004 17.6651M27.7782 19.9985C27.7782 24.294 24.296 27.7763 20.0004 27.7763C15.7049 27.7763 12.2227 24.294 12.2227 19.9985C12.2227 15.7029 15.7049 12.2207 20.0004 12.2207C24.296 12.2207 27.7782 15.7029 27.7782 19.9985Z" stroke="white" stroke-width="1.2" stroke-linecap="round" stroke-linejoin="round"/>
</svg>
