<svg width="40" height="41" viewBox="0 0 40 41" fill="none" xmlns="http://www.w3.org/2000/svg">
<path d="M34 40.6016H6C2.7 40.6016 0 37.9016 0 34.6016V6.60156C0 3.30156 2.7 0.601562 6 0.601562H34C37.3 0.601562 40 3.30156 40 6.60156V34.6016C40 37.9016 37.3 40.6016 34 40.6016Z" fill="#2AB150"/>
<mask id="mask0_5_21996" style="mask-type:luminance" maskUnits="userSpaceOnUse" x="11" y="11" width="18" height="19">
<path d="M11 11.6416H29V29.6416H11V11.6416Z" fill="white"/>
</mask>
<g mask="url(#mask0_5_21996)">
<path d="M26.4016 21.3016V18.7016C26.4016 18.4016 26.3016 18.0016 26.0016 17.8016C25.8016 17.6016 25.5016 17.4016 25.1016 17.4016H12.9016C12.6016 17.4016 12.3016 17.6016 12.0016 17.8016C11.8016 18.0016 11.6016 18.4016 11.6016 18.7016V27.7016C11.6016 28.1016 11.8016 28.4016 12.0016 28.6016C12.3016 28.9016 12.6016 29.0016 12.9016 29.0016H25.1016C25.5016 29.0016 25.8016 28.9016 26.0016 28.6016C26.3016 28.4016 26.4016 28.1016 26.4016 27.7016V24.5016" stroke="white" stroke-width="1.3" stroke-linecap="round" stroke-linejoin="round"/>
<path d="M15.9023 14.2016L23.2023 12.3016C23.2689 12.3016 23.369 12.3016 23.5023 12.3016C23.569 12.3016 23.6356 12.3349 23.7023 12.4016C23.7689 12.4016 23.8357 12.4349 23.9023 12.5016C23.969 12.5683 24.0023 12.6682 24.0023 12.8016L24.4023 14.2016" stroke="white" stroke-width="1.3" stroke-linecap="round" stroke-linejoin="round"/>
<path d="M27.7023 21.3016H24.5023C24.1023 21.3016 23.9023 21.6016 23.9023 21.9016V23.9016C23.9023 24.2016 24.1023 24.5016 24.5023 24.5016H27.7023C28.1023 24.5016 28.4023 24.2016 28.4023 23.9016V21.9016C28.4023 21.6016 28.1023 21.3016 27.7023 21.3016Z" stroke="white" stroke-width="1.3" stroke-linecap="round" stroke-linejoin="round"/>
</g>
<path d="M34 41H6C2.7 41 0 38.3 0 35V7C0 3.7 2.7 1 6 1H34C37.3 1 40 3.7 40 7V35C40 38.3 37.3 41 34 41Z" fill="#57C8F4"/>
<path d="M23.1111 17.8889V15.1672C23.1111 14.5203 23.1111 14.1968 22.9748 13.9981C22.8558 13.8244 22.6714 13.7064 22.4638 13.6711C22.2262 13.6307 21.9325 13.7662 21.3452 14.0373L14.4459 17.2216C13.9221 17.4634 13.6601 17.5842 13.4683 17.7717C13.2987 17.9375 13.1693 18.1398 13.0898 18.3632C13 18.616 13 18.9044 13 19.4814V23.3334M23.5 22.9445H23.5078M13 20.3778L13 25.5111C13 26.3823 13 26.8179 13.1695 27.1507C13.3187 27.4434 13.5567 27.6813 13.8493 27.8305C14.1821 28 14.6177 28 15.4889 28H24.5111C25.3823 28 25.8179 28 26.1507 27.8305C26.4433 27.6813 26.6813 27.4434 26.8305 27.1507C27 26.8179 27 26.3823 27 25.5111V20.3778C27 19.5066 27 19.071 26.8305 18.7383C26.6813 18.4456 26.4433 18.2076 26.1507 18.0585C25.8179 17.8889 25.3823 17.8889 24.5111 17.8889L15.4889 17.8889C14.6177 17.8889 14.1821 17.8889 13.8493 18.0585C13.5567 18.2076 13.3187 18.4456 13.1695 18.7383C13 19.071 13 19.5066 13 20.3778ZM23.8889 22.9445C23.8889 23.1593 23.7148 23.3334 23.5 23.3334C23.2852 23.3334 23.1111 23.1593 23.1111 22.9445C23.1111 22.7297 23.2852 22.5556 23.5 22.5556C23.7148 22.5556 23.8889 22.7297 23.8889 22.9445Z" stroke="white" stroke-width="1.2" stroke-linecap="round" stroke-linejoin="round"/>
</svg>
