<svg width="40" height="40" viewBox="0 0 40 40" fill="none" xmlns="http://www.w3.org/2000/svg">
<path d="M34 40H6C2.7 40 0 37.3 0 34V6C0 2.7 2.7 0 6 0H34C37.3 0 40 2.7 40 6V34C40 37.3 37.3 40 34 40Z" fill="#FC705B"/>
<path d="M24.7961 12.2207H15.2099C14.8502 12.2207 14.5586 12.5123 14.5586 12.872C14.5586 14.945 15.3821 16.9331 16.8479 18.3989L17.7961 19.3471C17.8903 19.4413 17.9374 19.4884 17.9711 19.5336C18.1767 19.8094 18.1767 20.1875 17.9711 20.4634C17.9374 20.5086 17.8903 20.5557 17.7961 20.6498L16.8479 21.5981C15.3821 23.0639 14.5586 25.0519 14.5586 27.1249C14.5586 27.4846 14.8502 27.7763 15.2099 27.7763H24.7961C25.1559 27.7763 25.4475 27.4846 25.4475 27.1249C25.4475 25.0519 24.624 23.0639 23.1582 21.5981L22.2099 20.6498C22.1158 20.5557 22.0687 20.5086 22.035 20.4634C21.8294 20.1875 21.8294 19.8094 22.035 19.5336C22.0687 19.4884 22.1158 19.4413 22.2099 19.3471L23.1582 18.3989C24.624 16.9331 25.4475 14.945 25.4475 12.872C25.4475 12.5123 25.1559 12.2207 24.7961 12.2207Z" stroke="white" stroke-width="1.2" stroke-linecap="round" stroke-linejoin="round"/>
</svg>
