<svg width="40" height="40" viewBox="0 0 40 40" fill="none" xmlns="http://www.w3.org/2000/svg">
<path d="M34 40H6C2.7 40 0 37.3 0 34V6C0 2.7 2.7 0 6 0H34C37.3 0 40 2.7 40 6V34C40 37.3 37.3 40 34 40Z" fill="#95D283"/>
<path d="M23.1111 16.8889V14.1672C23.1111 13.5203 23.1111 13.1968 22.9748 12.9981C22.8558 12.8244 22.6714 12.7064 22.4638 12.6711C22.2262 12.6307 21.9325 12.7662 21.3452 13.0373L14.4459 16.2216C13.9221 16.4634 13.6601 16.5842 13.4683 16.7717C13.2987 16.9375 13.1693 17.1398 13.0898 17.3632C13 17.616 13 17.9044 13 18.4814V22.3334M23.5 21.9445H23.5078M13 19.3778L13 24.5111C13 25.3823 13 25.8179 13.1695 26.1507C13.3187 26.4434 13.5567 26.6813 13.8493 26.8305C14.1821 27 14.6177 27 15.4889 27H24.5111C25.3823 27 25.8179 27 26.1507 26.8305C26.4433 26.6813 26.6813 26.4434 26.8305 26.1507C27 25.8179 27 25.3823 27 24.5111V19.3778C27 18.5066 27 18.071 26.8305 17.7383C26.6813 17.4456 26.4433 17.2076 26.1507 17.0585C25.8179 16.8889 25.3823 16.8889 24.5111 16.8889L15.4889 16.8889C14.6177 16.8889 14.1821 16.8889 13.8493 17.0585C13.5567 17.2076 13.3187 17.4456 13.1695 17.7383C13 18.071 13 18.5066 13 19.3778ZM23.8889 21.9445C23.8889 22.1593 23.7148 22.3334 23.5 22.3334C23.2852 22.3334 23.1111 22.1593 23.1111 21.9445C23.1111 21.7297 23.2852 21.5556 23.5 21.5556C23.7148 21.5556 23.8889 21.7297 23.8889 21.9445Z" stroke="white" stroke-width="1.2" stroke-linecap="round" stroke-linejoin="round"/>
</svg>
