<svg width="40" height="40" viewBox="0 0 40 40" fill="none" xmlns="http://www.w3.org/2000/svg">
<path d="M34 40H6C2.7 40 0 37.3 0 34V6C0 2.7 2.7 0 6 0H34C37.3 0 40 2.7 40 6V34C40 37.3 37.3 40 34 40Z" fill="#F8D347"/>
<path d="M26.2227 18.0551V16.2662C26.2227 15.395 26.2227 14.9594 26.0531 14.6267C25.904 14.334 25.666 14.096 25.3733 13.9469C25.0406 13.7773 24.605 13.7773 23.7338 13.7773H14.7115C13.8404 13.7773 13.4048 13.7773 13.072 13.9469C12.7793 14.096 12.5413 14.334 12.3922 14.6267C12.2227 14.9594 12.2227 15.395 12.2227 16.2662V23.7329C12.2227 24.6041 12.2227 25.0397 12.3922 25.3724C12.5413 25.6651 12.7793 25.9031 13.072 26.0522C13.4048 26.2218 13.8404 26.2218 14.7115 26.2218L23.7338 26.2218C24.605 26.2218 25.0406 26.2218 25.3733 26.0522C25.666 25.9031 25.904 25.6651 26.0531 25.3724C26.2227 25.0397 26.2227 24.6041 26.2227 23.7329V21.944M22.3338 19.9996C22.3338 19.6382 22.3338 19.4575 22.3637 19.3072C22.4864 18.6901 22.9688 18.2078 23.5858 18.085C23.7361 18.0551 23.9168 18.0551 24.2782 18.0551H25.8338C26.1952 18.0551 26.3759 18.0551 26.5261 18.085C27.1432 18.2078 27.6256 18.6901 27.7483 19.3072C27.7782 19.4575 27.7782 19.6382 27.7782 19.9996C27.7782 20.361 27.7782 20.5417 27.7483 20.6919C27.6256 21.309 27.1432 21.7914 26.5261 21.9141C26.3759 21.944 26.1952 21.944 25.8338 21.944H24.2782C23.9168 21.944 23.7361 21.944 23.5858 21.9141C22.9688 21.7914 22.4864 21.309 22.3637 20.6919C22.3338 20.5417 22.3338 20.361 22.3338 19.9996Z" stroke="white" stroke-width="1.2" stroke-linecap="round" stroke-linejoin="round"/>
</svg>
